
<svg xmlns="http://www.w3.org/2000/svg" xmlns:se="http://svg-edit.googlecode.com" xmlns:xlink="http://www.w3.org/1999/xlink" xmlns:dc="http://purl.org/dc/elements/1.1/" xmlns:cc="http://creativecommons.org/ns#" xmlns:rdf="http://www.w3.org/1999/02/22-rdf-syntax-ns#" xmlns:inkscape="http://www.inkscape.org/namespaces/inkscape" width="233" height="233">
    
    <title>my vector image
    </title>
    
    <rect id="backgroundrect" width="100%" height="100%" x="0" y="0" fill="transparent" stroke="none" class=""/>
        
        <g class="currentLayer">
            <title>Layer 1
        </title>
        <polyline fill="#ffae00" stroke="#222222" stroke-width="4" stroke-linejoin="round" stroke-dashoffset="" fill-rule="nonzero" marker-start="" marker-mid="" marker-end="" id="svg_2" points="58.89339828491211,183.6662046611309 57.68368148803711,183.6662046611309 56.87722396850586,183.6662046611309 56.87722396850586,184.47266218066216 55.66756820678711,184.47266218066216 54.45791244506836,184.47266218066216 53.65145492553711,184.47266218066216 53.65145492553711,185.68234845995903 52.441768646240234,185.68234845995903 51.23208236694336,185.68234845995903 50.425655364990234,185.68234845995903 49.21596908569336,186.89200422167778 48.00625228881836,186.89200422167778 47.19979476928711,187.69846174120903 45.99013900756836,187.69846174120903 44.78048324584961,187.69846174120903 44.78048324584961,188.9081480205059 43.97402572631836,190.11783429980278 42.76430892944336,190.11783429980278 42.76430892944336,190.9242613017559 41.554683685302734,190.9242613017559 40.74819564819336,190.9242613017559 39.538509368896484,190.9242613017559 39.538509368896484,192.13394758105278 38.328853607177734,192.13394758105278 38.328853607177734,193.34363386034966 37.522396087646484,193.34363386034966 36.312740325927734,193.34363386034966 36.312740325927734,194.1500913798809 36.312740325927734,195.35974714159966 35.103023529052734,195.35974714159966 35.103023529052734,196.56943342089653 35.103023529052734,197.37589094042778 34.29659652709961,197.37589094042778 34.29659652709961,198.58557721972466 33.08690643310547,199.7952329814434 33.08690643310547,200.60169050097466 31.877214431762695,200.60169050097466 31.877214431762695,201.81137678027153 31.07078742980957,201.81137678027153 31.07078742980957,203.0210630595684 29.861101150512695,203.0210630595684 29.861101150512695,203.82749006152153 29.861101150512695,205.0371763408184 29.861101150512695,206.24686262011528 29.861101150512695,207.05332013964653 29.861101150512695,208.26297590136528 29.861101150512695,209.47266218066216 31.07078742980957,209.47266218066216 31.877214431762695,209.47266218066216 31.877214431762695,210.2791197001934 33.08690643310547,210.2791197001934 33.08690643310547,211.48877546191216 34.29659652709961,211.48877546191216 34.29659652709961,212.69846174120903 35.103023529052734,213.50491926074028 36.312740325927734,213.50491926074028 37.522396087646484,213.50491926074028 38.328853607177734,213.50491926074028 39.538509368896484,213.50491926074028 40.74819564819336,213.50491926074028 41.554683685302734,213.50491926074028 41.554683685302734,214.71460554003716 42.76430892944336,214.71460554003716 42.76430892944336,215.9242613017559 42.76430892944336,216.73071882128716 42.76430892944336,217.94040510058403 42.76430892944336,219.1500913798809 42.76430892944336,219.95651838183403 42.76430892944336,221.1662046611309 42.76430892944336,222.37589094042778 43.97402572631836,222.37589094042778 43.97402572631836,223.18234845995903 43.97402572631836,224.39200422167778 43.97402572631836,225.60169050097466 43.97402572631836,226.4081480205059 44.78048324584961,226.4081480205059 44.78048324584961,227.61783429980278 44.78048324584961,228.82749006152153 45.99013900756836,228.82749006152153 45.99013900756836,229.63394758105278 47.19979476928711,229.63394758105278 47.19979476928711,230.84363386034966 48.00625228881836,230.84363386034966 48.00625228881836,232.05332013964653 49.21596908569336,232.05332013964653 50.425655364990234,232.05332013964653 51.23208236694336,232.05332013964653 52.441768646240234,232.05332013964653 52.441768646240234,230.84363386034966 52.441768646240234,229.63394758105278 52.441768646240234,228.82749006152153 52.441768646240234,227.61783429980278 53.65145492553711,227.61783429980278 53.65145492553711,226.4081480205059 53.65145492553711,225.60169050097466 54.45791244506836,225.60169050097466 54.45791244506836,224.39200422167778 54.45791244506836,223.18234845995903 55.66756820678711,223.18234845995903 55.66756820678711,222.37589094042778 56.87722396850586,222.37589094042778 57.68368148803711,222.37589094042778 58.89339828491211,222.37589094042778 60.103023529052734,222.37589094042778 60.90951156616211,222.37589094042778 62.11916732788086,222.37589094042778 62.11916732788086,223.18234845995903 63.328853607177734,223.18234845995903 63.328853607177734,224.39200422167778 64.1352767944336,224.39200422167778 64.1352767944336,225.60169050097466 64.1352767944336,226.4081480205059 65.3449935913086,226.4081480205059 65.3449935913086,227.61783429980278 65.3449935913086,228.82749006152153 66.5546875,228.82749006152153 66.5546875,229.63394758105278 66.5546875,230.84363386034966 67.3611068725586,230.84363386034966 67.3611068725586,232.05332013964653 68.57079315185547,232.85974714159966 69.78047943115234,232.85974714159966 70.5869369506836,232.85974714159966 71.79659271240234,232.85974714159966 73.00625610351562,232.85974714159966 73.81270599365234,232.85974714159966 75.02242279052734,232.85974714159966 76.2320785522461,232.85974714159966 76.2320785522461,232.05332013964653 77.03854370117188,232.05332013964653 77.03854370117188,230.84363386034966 78.24819946289062,230.84363386034966 78.24819946289062,229.63394758105278 79.4579086303711,228.82749006152153 79.4579086303711,227.61783429980278 79.4579086303711,226.4081480205059 80.26431274414062,226.4081480205059 80.26431274414062,225.60169050097466 80.26431274414062,224.39200422167778 81.4740219116211,224.39200422167778 81.4740219116211,223.18234845995903 81.4740219116211,222.37589094042778 82.68368530273438,222.37589094042778 82.68368530273438,221.1662046611309 82.68368530273438,219.95651838183403 83.49016571044922,219.95651838183403 83.49016571044922,219.1500913798809 83.49016571044922,217.94040510058403 84.69979095458984,217.94040510058403 84.69979095458984,216.73071882128716 84.69979095458984,215.9242613017559 84.69979095458984,214.71460554003716 84.69979095458984,213.50491926074028 84.69979095458984,212.69846174120903 84.69979095458984,211.48877546191216 84.69979095458984,210.2791197001934 84.69979095458984,209.47266218066216 84.69979095458984,208.26297590136528 84.69979095458984,207.05332013964653 84.69979095458984,206.24686262011528 84.69979095458984,205.0371763408184 85.90950775146484,205.0371763408184 85.90950775146484,203.82749006152153 85.90950775146484,203.0210630595684 86.71593475341797,203.0210630595684 86.71593475341797,201.81137678027153 86.71593475341797,200.60169050097466 86.71593475341797,199.7952329814434 86.71593475341797,198.58557721972466 86.71593475341797,197.37589094042778 86.71593475341797,196.56943342089653 87.92562103271484,196.56943342089653 " style="color: rgb(0, 0, 0);" class="" fill-opacity="1"/>
        <polyline fill="#ffae00" stroke="#222222" stroke-width="4" stroke-linejoin="round" stroke-dashoffset="" fill-rule="nonzero" marker-start="" marker-mid="" marker-end="" id="svg_3" points="132.6836395263672,195.76297590136528 132.6836395263672,198.18234845995903 133.49012756347656,198.18234845995903 133.49012756347656,198.98877546191216 133.49012756347656,200.19846174120903 134.6997528076172,200.19846174120903 134.6997528076172,201.4081480205059 134.6997528076172,202.21460554003716 134.6997528076172,203.4242613017559 135.9094696044922,203.4242613017559 135.9094696044922,204.63394758105278 135.9094696044922,205.44040510058403 135.9094696044922,206.6500913798809 135.9094696044922,207.85974714159966 136.7158966064453,207.85974714159966 136.7158966064453,208.6662046611309 137.9255828857422,208.6662046611309 137.9255828857422,209.87589094042778 137.9255828857422,211.08557721972466 139.13523864746094,211.08557721972466 139.9416961669922,211.89200422167778 139.9416961669922,213.10169050097466 141.15138244628906,213.10169050097466 141.15138244628906,214.31137678027153 142.36106872558594,214.31137678027153 142.36106872558594,215.11783429980278 143.16749572753906,215.11783429980278 143.16749572753906,216.32749006152153 144.37718200683594,216.32749006152153 144.37718200683594,217.5371763408184 145.58689880371094,217.5371763408184 146.39329528808594,218.34363386034966 147.60301208496094,218.34363386034966 148.8126678466797,219.55332013964653 149.61915588378906,219.55332013964653 150.8287811279297,219.55332013964653 152.0384979248047,219.55332013964653 152.84495544433594,220.76297590136528 154.0546417236328,220.76297590136528 155.26426696777344,220.76297590136528 156.0707550048828,220.76297590136528 156.0707550048828,221.56943342089653 157.2804412841797,221.56943342089653 158.49009704589844,221.56943342089653 159.2965545654297,221.56943342089653 160.50621032714844,221.56943342089653 161.7158966064453,221.56943342089653 162.5223846435547,221.56943342089653 163.73204040527344,221.56943342089653 164.9416961669922,221.56943342089653 165.74815368652344,221.56943342089653 166.9578399658203,221.56943342089653 168.16749572753906,221.56943342089653 168.97398376464844,221.56943342089653 170.1836395263672,221.56943342089653 171.39329528808594,221.56943342089653 172.1997528076172,221.56943342089653 172.1997528076172,220.76297590136528 172.1997528076172,219.55332013964653 172.1997528076172,218.34363386034966 172.1997528076172,217.5371763408184 172.1997528076172,216.32749006152153 171.39329528808594,215.11783429980278 170.1836395263672,214.31137678027153 168.97398376464844,214.31137678027153 168.97398376464844,213.10169050097466 168.16749572753906,213.10169050097466 168.16749572753906,211.89200422167778 166.9578399658203,211.89200422167778 165.74815368652344,211.89200422167778 164.9416961669922,211.89200422167778 164.9416961669922,211.08557721972466 165.74815368652344,211.08557721972466 166.9578399658203,211.08557721972466 166.9578399658203,211.89200422167778 168.16749572753906,211.89200422167778 168.97398376464844,211.89200422167778 170.1836395263672,211.89200422167778 170.1836395263672,213.10169050097466 171.39329528808594,213.10169050097466 172.1997528076172,213.10169050097466 172.1997528076172,214.31137678027153 173.4094696044922,214.31137678027153 174.61915588378906,214.31137678027153 175.4255828857422,214.31137678027153 176.63523864746094,215.11783429980278 177.84495544433594,215.11783429980278 178.6514129638672,215.11783429980278 179.86106872558594,215.11783429980278 181.0707550048828,215.11783429980278 181.87718200683594,215.11783429980278 183.0868682861328,215.11783429980278 184.2965545654297,215.11783429980278 184.2965545654297,214.31137678027153 185.1029815673828,214.31137678027153 186.3126983642578,214.31137678027153 186.3126983642578,213.10169050097466 187.52235412597656,213.10169050097466 188.3288116455078,213.10169050097466 188.3288116455078,211.89200422167778 190.74815368652344,211.89200422167778 190.74815368652344,211.08557721972466 190.74815368652344,209.87589094042778 191.5546417236328,209.87589094042778 191.5546417236328,208.6662046611309 192.76426696777344,208.6662046611309 192.76426696777344,207.85974714159966 192.76426696777344,206.6500913798809 192.76426696777344,205.44040510058403 192.76426696777344,204.63394758105278 192.76426696777344,203.4242613017559 191.5546417236328,202.21460554003716 191.5546417236328,201.4081480205059 190.74815368652344,201.4081480205059 191.5546417236328,201.4081480205059 192.76426696777344,201.4081480205059 193.97398376464844,201.4081480205059 194.7804412841797,201.4081480205059 195.99009704589844,201.4081480205059 197.1997528076172,201.4081480205059 198.00621032714844,201.4081480205059 199.21592712402344,201.4081480205059 200.4255828857422,201.4081480205059 201.23204040527344,201.4081480205059 202.4417266845703,201.4081480205059 203.6514129638672,200.19846174120903 203.6514129638672,198.98877546191216 204.4578094482422,198.98877546191216 204.4578094482422,198.18234845995903 204.4578094482422,196.97266218066216 204.4578094482422,195.76297590136528 204.4578094482422,194.95651838183403 204.4578094482422,193.74686262011528 204.4578094482422,192.5371763408184 204.4578094482422,191.73071882128716 204.4578094482422,190.5210630595684 204.4578094482422,189.31137678027153 203.6514129638672,189.31137678027153 203.6514129638672,188.50491926074028 202.4417266845703,188.50491926074028 202.4417266845703,187.2952329814434 201.23204040527344,187.2952329814434 200.4255828857422,187.2952329814434 200.4255828857422,186.08557721972466 199.21592712402344,186.08557721972466 198.00621032714844,186.08557721972466 198.00621032714844,185.2791197001934 197.1997528076172,185.2791197001934 197.1997528076172,184.06943342089653 195.99009704589844,184.06943342089653 195.99009704589844,182.85974714159966 194.7804412841797,182.85974714159966 193.97398376464844,182.85974714159966 193.97398376464844,182.05332013964653 192.76426696777344,182.05332013964653 191.5546417236328,182.05332013964653 190.74815368652344,182.05332013964653 190.74815368652344,180.84363386034966 189.53846740722656,180.84363386034966 188.3288116455078,180.84363386034966 187.52235412597656,179.63394758105278 186.3126983642578,179.63394758105278 185.1029815673828,179.63394758105278 184.2965545654297,179.63394758105278 183.0868682861328,179.63394758105278 181.87718200683594,178.82749006152153 181.0707550048828,178.82749006152153 179.86106872558594,178.82749006152153 178.6514129638672,178.82749006152153 177.84495544433594,178.82749006152153 176.63523864746094,178.82749006152153 175.4255828857422,178.82749006152153 174.61915588378906,178.82749006152153 173.4094696044922,178.82749006152153 172.1997528076172,178.82749006152153 171.39329528808594,178.82749006152153 170.1836395263672,178.82749006152153 168.97398376464844,178.82749006152153 " style="color: rgb(0, 0, 0);" class="" fill-opacity="1"/>
        <polyline fill="{{COLOR}}" stroke="#222222" stroke-width="4" stroke-linejoin="round" stroke-dashoffset="" fill-rule="nonzero" marker-start="" marker-mid="" marker-end="" id="svg_1" points="67.3611068725586,64.71462079882622 67.3611068725586,61.488809794187546 67.3611068725586,60.27913877367973 67.3611068725586,59.47268125414848 67.3611068725586,58.26301023364067 67.3611068725586,57.053323954343796 68.57079315185547,57.053323954343796 68.57079315185547,56.24688169360161 68.57079315185547,55.03719541430473 68.57079315185547,53.82752439379692 68.57079315185547,53.02106687426567 68.57079315185547,51.81139585375786 68.57079315185547,50.601724833250046 69.78047943115234,50.601724833250046 69.78047943115234,49.795267313718796 69.78047943115234,48.58559629321098 69.78047943115234,47.37591001391411 70.5869369506836,47.37591001391411 70.5869369506836,46.56946775317192 70.5869369506836,45.359781473875046 71.79659271240234,45.359781473875046 71.79659271240234,44.15011045336723 71.79659271240234,43.34365293383598 71.79659271240234,42.13398191332817 71.79659271240234,40.924295634031296 73.00625610351562,40.11785337328911 73.81270599365234,38.90816709399223 73.81270599365234,37.69849607348442 73.81270599365234,36.89203855395317 73.81270599365234,35.68236753344536 75.02242279052734,35.68236753344536 75.02242279052734,34.47268125414848 76.2320785522461,34.47268125414848 76.2320785522461,33.666238993406296 77.03854370117188,33.666238993406296 77.03854370117188,32.456548899412155 77.03854370117188,31.246877878904343 77.03854370117188,30.440420359373093 78.24819946289062,30.440420359373093 78.24819946289062,29.23074933886528 79.4579086303711,28.021063059568405 79.4579086303711,27.214620798826218 80.26431274414062,27.214620798826218 80.26431274414062,26.004934519529343 81.4740219116211,26.004934519529343 81.4740219116211,24.79526349902153 81.4740219116211,23.98880597949028 82.68368530273438,23.98880597949028 82.68368530273438,22.779134958982468 83.49016571044922,22.779134958982468 83.49016571044922,21.569463938474655 83.49016571044922,20.763006418943405 83.49016571044922,19.553335398435593 84.69979095458984,19.553335398435593 84.69979095458984,18.343649119138718 85.90950775146484,17.53720685839653 86.71593475341797,17.53720685839653 86.71593475341797,16.327520579099655 86.71593475341797,15.117849558591843 87.92562103271484,15.117849558591843 89.1352767944336,15.117849558591843 89.1352767944336,14.311392039060593 89.1352767944336,13.10172101855278 89.94173431396484,13.10172101855278 89.94173431396484,11.892033785581589 91.15142059326172,11.892033785581589 91.15142059326172,11.085592478513718 91.15142059326172,9.875906199216843 92.3611068725586,9.875906199216843 92.3611068725586,8.66623517870903 93.16753387451172,8.66623517870903 93.16753387451172,7.85977765917778 94.3772201538086,7.85977765917778 94.3772201538086,6.650107115507126 95.5869369506836,6.650107115507126 95.5869369506836,5.440420359373093 96.39334106445312,5.440420359373093 96.39334106445312,4.633977621793747 97.6030502319336,4.633977621793747 98.81270599365234,4.633977621793747 98.81270599365234,3.42429181933403 99.61919403076172,3.42429181933403 100.82881927490234,3.42429181933403 102.03854370117188,3.42429181933403 102.03854370117188,2.2146207988262177 102.8449935913086,2.2146207988262177 104.0546875,2.2146207988262177 105.26431274414062,2.2146207988262177 106.07080078125,2.2146207988262177 106.07080078125,1.4081632792949677 107.28047943115234,1.4081632792949677 108.49016571044922,1.4081632792949677 109.29659271240234,1.4081632792949677 110.5062484741211,1.4081632792949677 111.71593475341797,1.4081632792949677 112.52242279052734,1.4081632792949677 113.7320785522461,1.4081632792949677 114.94173431396484,1.4081632792949677 115.7481918334961,1.4081632792949677 116.9579086303711,1.4081632792949677 118.16753387451172,1.4081632792949677 118.97402954101562,1.4081632792949677 118.97402954101562,2.2146207988262177 120.18367767333984,2.2146207988262177 121.39334106445312,2.2146207988262177 122.19979858398438,2.2146207988262177 123.40950775146484,2.2146207988262177 124.61919403076172,2.2146207988262177 125.42562866210938,2.2146207988262177 126.63528442382812,2.2146207988262177 126.63528442382812,3.42429181933403 127.8449935913086,3.42429181933403 128.6514434814453,3.42429181933403 128.6514434814453,4.633977621793747 129.86106872558594,4.633977621793747 131.0707550048828,4.633977621793747 131.87718200683594,4.633977621793747 133.0868682861328,5.440420359373093 134.2965545654297,5.440420359373093 135.1029815673828,6.650107115507126 136.3126983642578,6.650107115507126 136.3126983642578,7.85977765917778 137.5223846435547,7.85977765917778 138.3288116455078,7.85977765917778 138.3288116455078,8.66623517870903 139.53846740722656,8.66623517870903 139.53846740722656,9.875906199216843 140.74815368652344,9.875906199216843 140.74815368652344,11.085592478513718 141.5546417236328,11.085592478513718 141.5546417236328,11.892033785581589 142.76426696777344,11.892033785581589 143.97398376464844,13.10172101855278 143.97398376464844,14.311392039060593 144.7804412841797,14.311392039060593 144.7804412841797,15.117849558591843 145.99009704589844,15.117849558591843 145.99009704589844,16.327520579099655 147.1997528076172,16.327520579099655 147.1997528076172,17.53720685839653 147.1997528076172,18.343649119138718 148.00621032714844,18.343649119138718 148.00621032714844,19.553335398435593 149.21592712402344,19.553335398435593 149.21592712402344,20.763006418943405 149.21592712402344,21.569463938474655 150.4255828857422,21.569463938474655 150.4255828857422,22.779134958982468 151.23204040527344,22.779134958982468 151.23204040527344,23.98880597949028 151.23204040527344,24.79526349902153 151.23204040527344,26.004934519529343 152.4417266845703,26.004934519529343 152.4417266845703,27.214620798826218 153.6514129638672,28.021063059568405 153.6514129638672,29.23074933886528 153.6514129638672,30.440420359373093 153.6514129638672,31.246877878904343 154.4578094482422,31.246877878904343 154.4578094482422,32.456548899412155 154.4578094482422,33.666238993406296 154.4578094482422,34.47268125414848 155.6675262451172,34.47268125414848 155.6675262451172,35.68236753344536 155.6675262451172,36.89203855395317 155.6675262451172,37.69849607348442 155.6675262451172,38.90816709399223 156.87718200683594,38.90816709399223 156.87718200683594,40.11785337328911 156.87718200683594,40.924295634031296 157.6836395263672,42.13398191332817 157.6836395263672,43.34365293383598 157.6836395263672,44.15011045336723 158.89329528808594,44.15011045336723 158.89329528808594,45.359781473875046 160.1029815673828,45.359781473875046 160.1029815673828,46.56946775317192 160.1029815673828,47.37591001391411 160.1029815673828,48.58559629321098 160.9094696044922,49.795267313718796 160.9094696044922,50.601724833250046 160.9094696044922,51.81139585375786 160.9094696044922,53.02106687426567 162.11912536621094,53.02106687426567 162.11912536621094,53.82752439379692 162.11912536621094,55.03719541430473 162.11912536621094,56.24688169360161 162.11912536621094,57.053323954343796 163.3288116455078,57.053323954343796 163.3288116455078,58.26301023364067 163.3288116455078,59.47268125414848 164.13523864746094,59.47268125414848 164.13523864746094,60.27913877367973 164.13523864746094,61.488809794187546 165.34495544433594,61.488809794187546 165.34495544433594,62.69849607348442 166.5546417236328,62.69849607348442 166.5546417236328,63.50493833422661 167.36106872558594,63.50493833422661 167.36106872558594,64.71462079882622 168.5707550048828,64.71462079882622 168.5707550048828,65.92429944872856 169.7804412841797,65.92429944872856 169.7804412841797,66.73075696825981 170.58689880371094,66.73075696825981 170.58689880371094,67.94042798876762 171.7965545654297,67.94042798876762 171.7965545654297,69.1501142680645 173.00621032714844,69.1501142680645 173.00621032714844,69.95655652880669 173.8126678466797,69.95655652880669 173.8126678466797,71.16624280810356 173.8126678466797,72.37591382861137 175.0223846435547,72.37591382861137 176.23204040527344,72.37591382861137 176.23204040527344,73.18237134814262 177.0384979248047,73.18237134814262 177.0384979248047,74.39204236865044 178.24815368652344,74.39204236865044 178.24815368652344,75.60172864794731 179.4578094482422,75.60172864794731 180.26426696777344,75.60172864794731 180.26426696777344,76.4081709086895 181.47398376464844,76.4081709086895 182.6836395263672,77.61785718798637 183.49009704589844,77.61785718798637 183.49009704589844,78.82752820849419 183.49009704589844,79.63398572802544 184.6997528076172,79.63398572802544 185.9094696044922,79.63398572802544 185.9094696044922,80.84365674853325 185.9094696044922,82.05332776904106 186.7158966064453,82.05332776904106 187.9255828857422,82.85978528857231 189.13523864746094,82.85978528857231 189.13523864746094,84.06945630908012 189.9416961669922,84.06945630908012 189.9416961669922,85.279142588377 191.15138244628906,86.08558484911919 191.15138244628906,87.29527112841606 192.36106872558594,88.50494214892387 192.36106872558594,89.31139966845512 193.16749572753906,89.31139966845512 193.16749572753906,90.52107068896294 193.16749572753906,91.73075696825981 194.37718200683594,91.73075696825981 194.37718200683594,92.537199229002 195.58689880371094,92.537199229002 195.58689880371094,93.74688550829887 195.58689880371094,94.95655652880669 196.39329528808594,95.76301404833794 196.39329528808594,96.97268506884575 197.60301208496094,96.97268506884575 197.60301208496094,98.18237134814262 198.8126678466797,98.98881360888481 198.8126678466797,100.19849988818169 198.8126678466797,101.4081709086895 199.61915588378906,101.4081709086895 199.61915588378906,102.21462842822075 200.8287811279297,102.21462842822075 200.8287811279297,103.42431470751762 202.0384979248047,103.42431470751762 202.84495544433594,103.42431470751762 202.84495544433594,104.63397046923637 202.84495544433594,105.44042798876762 202.84495544433594,106.6501142680645 204.0546112060547,106.6501142680645 204.0546112060547,107.85977002978325 205.26426696777344,107.85977002978325 205.26426696777344,108.6662275493145 206.0707550048828,109.87591382861137 207.2804412841797,109.87591382861137 207.2804412841797,111.08560010790825 207.2804412841797,111.8920576274395 208.49009704589844,111.8920576274395 208.49009704589844,113.10171338915825 209.2965545654297,113.10171338915825 209.2965545654297,114.31139966845512 209.2965545654297,115.11785718798637 210.50621032714844,115.11785718798637 210.50621032714844,116.32751294970512 211.7158966064453,116.32751294970512 211.7158966064453,117.537199229002 211.7158966064453,118.34365674853325 212.52235412597656,118.34365674853325 212.52235412597656,119.55334302783012 213.73204040527344,121.56945630908012 214.9416961669922,122.779142588377 214.9416961669922,123.98882886767387 215.74815368652344,123.98882886767387 215.74815368652344,124.795255869627 215.74815368652344,126.00494214892387 216.9578094482422,127.21462842822075 216.9578094482422,128.021085947752 216.9578094482422,129.23071882128716 216.9578094482422,130.44040510058403 216.9578094482422,131.24686262011528 216.9578094482422,132.45654889941216 218.1675262451172,132.45654889941216 218.1675262451172,133.6662046611309 218.1675262451172,134.47266218066216 218.1675262451172,135.68234845995903 218.1675262451172,136.89200422167778 218.97398376464844,136.89200422167778 218.97398376464844,137.69846174120903 220.1836395263672,138.9081480205059 220.1836395263672,140.11783429980278 220.1836395263672,140.92429181933403 220.1836395263672,142.13394758105278 221.39329528808594,142.13394758105278 221.39329528808594,143.34363386034966 221.39329528808594,144.1500913798809 222.1997528076172,144.1500913798809 222.1997528076172,145.35974714159966 222.1997528076172,146.56943342089653 222.1997528076172,147.37589094042778 223.4094696044922,147.37589094042778 223.4094696044922,148.58557721972466 223.4094696044922,149.7952329814434 223.4094696044922,150.60169050097466 224.61912536621094,150.60169050097466 224.61912536621094,151.81137678027153 224.61912536621094,153.0210630595684 224.61912536621094,153.82749006152153 225.4255828857422,153.82749006152153 225.4255828857422,155.0371763408184 225.4255828857422,156.24686262011528 225.4255828857422,157.05332013964653 225.4255828857422,158.26297590136528 224.61912536621094,158.26297590136528 224.61912536621094,159.47266218066216 224.61912536621094,160.2791197001934 223.4094696044922,160.2791197001934 222.1997528076172,160.2791197001934 221.39329528808594,160.2791197001934 220.1836395263672,160.2791197001934 218.97398376464844,160.2791197001934 218.1675262451172,160.2791197001934 216.9578094482422,160.2791197001934 215.74815368652344,160.2791197001934 214.9416961669922,160.2791197001934 213.73204040527344,160.2791197001934 212.52235412597656,160.2791197001934 211.7158966064453,160.2791197001934 210.50621032714844,160.2791197001934 209.2965545654297,160.2791197001934 208.49009704589844,160.2791197001934 207.2804412841797,160.2791197001934 206.0707550048828,160.2791197001934 206.0707550048828,159.47266218066216 205.26426696777344,159.47266218066216 204.0546112060547,159.47266218066216 202.84495544433594,159.47266218066216 202.0384979248047,158.26297590136528 200.8287811279297,158.26297590136528 200.8287811279297,157.05332013964653 199.61915588378906,157.05332013964653 199.61915588378906,156.24686262011528 198.8126678466797,156.24686262011528 198.8126678466797,155.0371763408184 197.60301208496094,155.0371763408184 196.39329528808594,155.0371763408184 195.58689880371094,155.0371763408184 195.58689880371094,153.82749006152153 194.37718200683594,153.82749006152153 194.37718200683594,153.0210630595684 193.16749572753906,153.0210630595684 193.16749572753906,151.81137678027153 192.36106872558594,151.81137678027153 191.15138244628906,151.81137678027153 191.15138244628906,150.60169050097466 189.9416961669922,150.60169050097466 189.13523864746094,150.60169050097466 189.13523864746094,149.7952329814434 187.9255828857422,149.7952329814434 187.9255828857422,148.58557721972466 186.7158966064453,148.58557721972466 185.9094696044922,147.37589094042778 185.9094696044922,146.56943342089653 184.6997528076172,146.56943342089653 184.6997528076172,145.35974714159966 183.49009704589844,145.35974714159966 183.49009704589844,144.1500913798809 182.6836395263672,144.1500913798809 182.6836395263672,143.34363386034966 181.47398376464844,143.34363386034966 181.47398376464844,142.13394758105278 181.47398376464844,140.92429181933403 180.26426696777344,140.92429181933403 180.26426696777344,140.11783429980278 180.26426696777344,138.9081480205059 179.4578094482422,138.9081480205059 178.24815368652344,138.9081480205059 178.24815368652344,137.69846174120903 177.0384979248047,137.69846174120903 177.0384979248047,136.89200422167778 176.23204040527344,136.89200422167778 176.23204040527344,135.68234845995903 175.0223846435547,135.68234845995903 173.8126678466797,135.68234845995903 173.8126678466797,134.47266218066216 173.00621032714844,134.47266218066216 171.7965545654297,133.6662046611309 171.7965545654297,132.45654889941216 170.58689880371094,132.45654889941216 170.58689880371094,131.24686262011528 170.58689880371094,130.44040510058403 169.7804412841797,130.44040510058403 169.7804412841797,129.23071882128716 169.7804412841797,128.021085947752 168.5707550048828,128.021085947752 168.5707550048828,127.21462842822075 167.36106872558594,127.21462842822075 167.36106872558594,126.00494214892387 166.5546417236328,126.00494214892387 166.5546417236328,124.795255869627 165.34495544433594,124.795255869627 165.34495544433594,123.98882886767387 164.13523864746094,123.98882886767387 164.13523864746094,122.779142588377 163.3288116455078,122.779142588377 163.3288116455078,121.56945630908012 162.11912536621094,121.56945630908012 162.11912536621094,120.76299878954887 160.9094696044922,120.76299878954887 160.1029815673828,120.76299878954887 160.1029815673828,119.55334302783012 158.89329528808594,119.55334302783012 158.89329528808594,118.34365674853325 157.6836395263672,118.34365674853325 157.6836395263672,117.537199229002 157.6836395263672,116.32751294970512 156.87718200683594,116.32751294970512 156.87718200683594,115.11785718798637 155.6675262451172,115.11785718798637 155.6675262451172,114.31139966845512 155.6675262451172,113.10171338915825 155.6675262451172,111.8920576274395 154.4578094482422,111.8920576274395 154.4578094482422,113.10171338915825 154.4578094482422,114.31139966845512 154.4578094482422,115.11785718798637 154.4578094482422,116.32751294970512 154.4578094482422,117.537199229002 154.4578094482422,118.34365674853325 155.6675262451172,118.34365674853325 155.6675262451172,119.55334302783012 155.6675262451172,120.76299878954887 155.6675262451172,121.56945630908012 156.87718200683594,121.56945630908012 156.87718200683594,122.779142588377 156.87718200683594,123.98882886767387 156.87718200683594,124.795255869627 156.87718200683594,126.00494214892387 157.6836395263672,126.00494214892387 157.6836395263672,127.21462842822075 157.6836395263672,128.021085947752 157.6836395263672,129.23071882128716 158.89329528808594,129.23071882128716 158.89329528808594,130.44040510058403 158.89329528808594,131.24686262011528 158.89329528808594,132.45654889941216 160.1029815673828,133.6662046611309 160.1029815673828,134.47266218066216 160.1029815673828,135.68234845995903 160.1029815673828,136.89200422167778 160.1029815673828,137.69846174120903 160.9094696044922,137.69846174120903 160.9094696044922,138.9081480205059 160.9094696044922,140.11783429980278 160.9094696044922,140.92429181933403 162.11912536621094,140.92429181933403 162.11912536621094,142.13394758105278 162.11912536621094,143.34363386034966 162.11912536621094,144.1500913798809 162.11912536621094,145.35974714159966 162.11912536621094,146.56943342089653 162.11912536621094,147.37589094042778 162.11912536621094,148.58557721972466 162.11912536621094,149.7952329814434 162.11912536621094,150.60169050097466 162.11912536621094,151.81137678027153 162.11912536621094,153.0210630595684 162.11912536621094,153.82749006152153 162.11912536621094,155.0371763408184 162.11912536621094,156.24686262011528 162.11912536621094,157.05332013964653 162.11912536621094,158.26297590136528 162.11912536621094,159.47266218066216 162.11912536621094,160.2791197001934 162.11912536621094,161.48880597949028 162.11912536621094,162.69846174120903 162.11912536621094,163.50491926074028 162.11912536621094,164.71460554003716 162.11912536621094,165.9242613017559 162.11912536621094,166.73071882128716 162.11912536621094,167.94040510058403 162.11912536621094,169.1500913798809 162.11912536621094,169.95651838183403 162.11912536621094,171.1662046611309 163.3288116455078,171.1662046611309 163.3288116455078,172.37589094042778 163.3288116455078,173.18234845995903 163.3288116455078,174.39200422167778 163.3288116455078,175.60169050097466 164.13523864746094,175.60169050097466 164.13523864746094,176.4081480205059 164.13523864746094,177.61783429980278 165.34495544433594,177.61783429980278 165.34495544433594,178.82749006152153 165.34495544433594,179.63394758105278 165.34495544433594,180.84363386034966 165.34495544433594,182.05332013964653 166.5546417236328,182.05332013964653 166.5546417236328,182.85974714159966 166.5546417236328,184.06943342089653 166.5546417236328,185.2791197001934 165.34495544433594,185.2791197001934 165.34495544433594,186.08557721972466 164.13523864746094,186.08557721972466 164.13523864746094,187.2952329814434 163.3288116455078,187.2952329814434 162.11912536621094,188.50491926074028 160.9094696044922,188.50491926074028 160.9094696044922,189.31137678027153 160.1029815673828,189.31137678027153 160.1029815673828,190.5210630595684 158.89329528808594,190.5210630595684 157.6836395263672,190.5210630595684 157.6836395263672,191.73071882128716 156.87718200683594,191.73071882128716 155.6675262451172,192.5371763408184 154.4578094482422,192.5371763408184 154.4578094482422,193.74686262011528 153.6514129638672,193.74686262011528 152.4417266845703,193.74686262011528 152.4417266845703,194.95651838183403 151.23204040527344,194.95651838183403 150.4255828857422,194.95651838183403 150.4255828857422,195.76297590136528 149.21592712402344,195.76297590136528 148.00621032714844,195.76297590136528 147.1997528076172,195.76297590136528 147.1997528076172,196.97266218066216 145.99009704589844,196.97266218066216 144.7804412841797,196.97266218066216 144.7804412841797,198.18234845995903 143.97398376464844,198.18234845995903 142.76426696777344,198.18234845995903 142.76426696777344,198.98877546191216 141.5546417236328,198.98877546191216 140.74815368652344,198.98877546191216 139.53846740722656,198.98877546191216 137.5223846435547,198.98877546191216 136.3126983642578,198.98877546191216 135.1029815673828,198.98877546191216 134.2965545654297,198.98877546191216 133.0868682861328,198.98877546191216 131.87718200683594,198.98877546191216 131.0707550048828,198.98877546191216 129.86106872558594,198.98877546191216 128.6514434814453,198.98877546191216 127.8449935913086,198.98877546191216 126.63528442382812,198.98877546191216 125.42562866210938,198.98877546191216 124.61919403076172,198.98877546191216 123.40950775146484,198.98877546191216 122.19979858398438,198.98877546191216 121.39334106445312,198.98877546191216 120.18367767333984,198.98877546191216 118.97402954101562,198.98877546191216 118.16753387451172,198.98877546191216 116.9579086303711,198.98877546191216 115.7481918334961,198.98877546191216 114.94173431396484,198.98877546191216 113.7320785522461,198.98877546191216 112.52242279052734,198.98877546191216 111.71593475341797,198.98877546191216 110.5062484741211,198.98877546191216 109.29659271240234,198.98877546191216 108.49016571044922,198.98877546191216 108.49016571044922,198.18234845995903 107.28047943115234,198.18234845995903 106.07080078125,198.18234845995903 105.26431274414062,198.18234845995903 104.0546875,198.18234845995903 104.0546875,196.97266218066216 102.8449935913086,196.97266218066216 102.03854370117188,196.97266218066216 100.82881927490234,196.97266218066216 99.61919403076172,196.97266218066216 98.81270599365234,196.97266218066216 97.6030502319336,196.97266218066216 96.39334106445312,196.97266218066216 95.5869369506836,196.97266218066216 94.3772201538086,196.97266218066216 94.3772201538086,195.76297590136528 93.16753387451172,195.76297590136528 92.3611068725586,195.76297590136528 91.15142059326172,195.76297590136528 89.94173431396484,195.76297590136528 89.1352767944336,195.76297590136528 87.92562103271484,195.76297590136528 86.71593475341797,195.76297590136528 85.90950775146484,195.76297590136528 84.69979095458984,195.76297590136528 83.49016571044922,195.76297590136528 82.68368530273438,195.76297590136528 82.68368530273438,194.95651838183403 81.4740219116211,194.95651838183403 80.26431274414062,194.95651838183403 79.4579086303711,194.95651838183403 78.24819946289062,194.95651838183403 77.03854370117188,194.95651838183403 76.2320785522461,194.95651838183403 76.2320785522461,193.74686262011528 75.02242279052734,193.74686262011528 73.81270599365234,193.74686262011528 73.00625610351562,193.74686262011528 73.00625610351562,192.5371763408184 71.79659271240234,192.5371763408184 70.5869369506836,192.5371763408184 69.78047943115234,192.5371763408184 69.78047943115234,191.73071882128716 68.57079315185547,191.73071882128716 67.3611068725586,191.73071882128716 67.3611068725586,190.5210630595684 66.5546875,190.5210630595684 66.5546875,189.31137678027153 65.3449935913086,189.31137678027153 65.3449935913086,188.50491926074028 64.1352767944336,188.50491926074028 64.1352767944336,187.2952329814434 63.328853607177734,187.2952329814434 63.328853607177734,186.08557721972466 62.11916732788086,185.2791197001934 62.11916732788086,184.06943342089653 62.11916732788086,182.85974714159966 60.90951156616211,182.85974714159966 60.90951156616211,182.05332013964653 60.90951156616211,180.84363386034966 60.103023529052734,180.84363386034966 60.103023529052734,179.63394758105278 60.103023529052734,178.82749006152153 60.103023529052734,177.61783429980278 60.103023529052734,176.4081480205059 60.103023529052734,175.60169050097466 60.103023529052734,174.39200422167778 60.103023529052734,173.18234845995903 60.103023529052734,172.37589094042778 60.103023529052734,171.1662046611309 60.103023529052734,169.95651838183403 60.103023529052734,169.1500913798809 60.90951156616211,169.1500913798809 60.90951156616211,167.94040510058403 60.90951156616211,166.73071882128716 60.90951156616211,165.9242613017559 62.11916732788086,165.9242613017559 62.11916732788086,164.71460554003716 62.11916732788086,163.50491926074028 62.11916732788086,162.69846174120903 63.328853607177734,162.69846174120903 63.328853607177734,161.48880597949028 64.1352767944336,160.2791197001934 64.1352767944336,159.47266218066216 64.1352767944336,158.26297590136528 65.3449935913086,158.26297590136528 65.3449935913086,157.05332013964653 65.3449935913086,156.24686262011528 65.3449935913086,155.0371763408184 65.3449935913086,153.82749006152153 66.5546875,153.82749006152153 66.5546875,153.0210630595684 66.5546875,151.81137678027153 66.5546875,150.60169050097466 67.3611068725586,150.60169050097466 67.3611068725586,149.7952329814434 67.3611068725586,148.58557721972466 67.3611068725586,147.37589094042778 68.57079315185547,147.37589094042778 68.57079315185547,146.56943342089653 68.57079315185547,145.35974714159966 68.57079315185547,144.1500913798809 68.57079315185547,143.34363386034966 68.57079315185547,142.13394758105278 68.57079315185547,140.92429181933403 68.57079315185547,140.11783429980278 68.57079315185547,138.9081480205059 68.57079315185547,137.69846174120903 68.57079315185547,136.89200422167778 68.57079315185547,135.68234845995903 68.57079315185547,134.47266218066216 68.57079315185547,133.6662046611309 68.57079315185547,132.45654889941216 69.78047943115234,132.45654889941216 69.78047943115234,131.24686262011528 69.78047943115234,130.44040510058403 70.5869369506836,130.44040510058403 70.5869369506836,129.23071882128716 70.5869369506836,128.021085947752 70.5869369506836,127.21462842822075 71.79659271240234,127.21462842822075 71.79659271240234,126.00494214892387 71.79659271240234,124.795255869627 71.79659271240234,123.98882886767387 71.79659271240234,122.779142588377 73.00625610351562,122.779142588377 73.00625610351562,121.56945630908012 73.00625610351562,120.76299878954887 73.00625610351562,119.55334302783012 73.00625610351562,118.34365674853325 73.81270599365234,118.34365674853325 73.81270599365234,117.537199229002 73.81270599365234,116.32751294970512 73.81270599365234,115.11785718798637 73.81270599365234,114.31139966845512 75.02242279052734,114.31139966845512 75.02242279052734,113.10171338915825 75.02242279052734,111.8920576274395 75.02242279052734,111.08560010790825 75.02242279052734,109.87591382861137 75.02242279052734,108.6662275493145 73.81270599365234,108.6662275493145 73.00625610351562,108.6662275493145 73.00625610351562,107.85977002978325 73.00625610351562,106.6501142680645 73.00625610351562,105.44042798876762 73.00625610351562,104.63397046923637 71.79659271240234,103.42431470751762 71.79659271240234,102.21462842822075 71.79659271240234,101.4081709086895 71.79659271240234,100.19849988818169 71.79659271240234,98.98881360888481 71.79659271240234,98.18237134814262 71.79659271240234,96.97268506884575 71.79659271240234,95.76301404833794 71.79659271240234,94.95655652880669 70.5869369506836,94.95655652880669 69.78047943115234,94.95655652880669 69.78047943115234,95.76301404833794 69.78047943115234,96.97268506884575 68.57079315185547,96.97268506884575 68.57079315185547,98.18237134814262 67.3611068725586,98.18237134814262 67.3611068725586,98.98881360888481 66.5546875,98.98881360888481 66.5546875,100.19849988818169 66.5546875,101.4081709086895 65.3449935913086,101.4081709086895 65.3449935913086,102.21462842822075 65.3449935913086,103.42431470751762 64.1352767944336,103.42431470751762 64.1352767944336,104.63397046923637 63.328853607177734,104.63397046923637 63.328853607177734,105.44042798876762 63.328853607177734,106.6501142680645 62.11916732788086,106.6501142680645 62.11916732788086,107.85977002978325 62.11916732788086,108.6662275493145 60.90951156616211,108.6662275493145 60.90951156616211,109.87591382861137 60.103023529052734,109.87591382861137 60.103023529052734,111.08560010790825 60.103023529052734,111.8920576274395 58.89339828491211,111.8920576274395 58.89339828491211,113.10171338915825 57.68368148803711,113.10171338915825 57.68368148803711,114.31139966845512 57.68368148803711,115.11785718798637 56.87722396850586,115.11785718798637 56.87722396850586,116.32751294970512 56.87722396850586,117.537199229002 55.66756820678711,117.537199229002 55.66756820678711,118.34365674853325 54.45791244506836,118.34365674853325 54.45791244506836,119.55334302783012 54.45791244506836,120.76299878954887 53.65145492553711,120.76299878954887 53.65145492553711,121.56945630908012 53.65145492553711,122.779142588377 52.441768646240234,122.779142588377 52.441768646240234,123.98882886767387 52.441768646240234,124.795255869627 51.23208236694336,124.795255869627 51.23208236694336,126.00494214892387 51.23208236694336,127.21462842822075 50.425655364990234,127.21462842822075 50.425655364990234,128.021085947752 50.425655364990234,129.23071882128716 49.21596908569336,129.23071882128716 49.21596908569336,130.44040510058403 49.21596908569336,131.24686262011528 48.00625228881836,131.24686262011528 47.19979476928711,131.24686262011528 47.19979476928711,132.45654889941216 45.99013900756836,132.45654889941216 45.99013900756836,133.6662046611309 44.78048324584961,133.6662046611309 44.78048324584961,134.47266218066216 43.97402572631836,134.47266218066216 43.97402572631836,135.68234845995903 42.76430892944336,135.68234845995903 42.76430892944336,136.89200422167778 41.554683685302734,136.89200422167778 41.554683685302734,137.69846174120903 40.74819564819336,137.69846174120903 39.538509368896484,138.9081480205059 38.328853607177734,138.9081480205059 38.328853607177734,140.11783429980278 37.522396087646484,140.11783429980278 36.312740325927734,140.11783429980278 36.312740325927734,140.92429181933403 35.103023529052734,140.92429181933403 35.103023529052734,142.13394758105278 35.103023529052734,143.34363386034966 34.29659652709961,143.34363386034966 34.29659652709961,144.1500913798809 34.29659652709961,145.35974714159966 33.08690643310547,145.35974714159966 33.08690643310547,146.56943342089653 31.877214431762695,146.56943342089653 31.877214431762695,147.37589094042778 31.877214431762695,148.58557721972466 31.07078742980957,148.58557721972466 29.861101150512695,148.58557721972466 29.861101150512695,149.7952329814434 28.651445388793945,149.7952329814434 28.651445388793945,150.60169050097466 27.844987869262695,150.60169050097466 26.63530158996582,150.60169050097466 25.425615310668945,150.60169050097466 25.425615310668945,151.81137678027153 24.61918830871582,151.81137678027153 23.409502029418945,151.81137678027153 22.19981575012207,151.81137678027153 22.19981575012207,150.60169050097466 21.39335823059082,150.60169050097466 21.39335823059082,149.7952329814434 20.183671951293945,149.7952329814434 20.183671951293945,148.58557721972466 20.183671951293945,147.37589094042778 20.183671951293945,146.56943342089653 20.183671951293945,145.35974714159966 20.183671951293945,144.1500913798809 21.39335823059082,144.1500913798809 21.39335823059082,143.34363386034966 21.39335823059082,142.13394758105278 21.39335823059082,140.92429181933403 22.19981575012207,140.92429181933403 22.19981575012207,140.11783429980278 22.19981575012207,138.9081480205059 24.61918830871582,138.9081480205059 24.61918830871582,137.69846174120903 24.61918830871582,136.89200422167778 25.425615310668945,136.89200422167778 25.425615310668945,135.68234845995903 26.63530158996582,134.47266218066216 26.63530158996582,133.6662046611309 27.844987869262695,133.6662046611309 27.844987869262695,132.45654889941216 27.844987869262695,131.24686262011528 27.844987869262695,130.44040510058403 28.651445388793945,130.44040510058403 28.651445388793945,129.23071882128716 28.651445388793945,128.021085947752 29.861101150512695,128.021085947752 29.861101150512695,127.21462842822075 29.861101150512695,126.00494214892387 31.07078742980957,126.00494214892387 31.07078742980957,124.795255869627 31.07078742980957,123.98882886767387 31.07078742980957,122.779142588377 31.877214431762695,122.779142588377 31.877214431762695,121.56945630908012 31.877214431762695,120.76299878954887 33.08690643310547,120.76299878954887 33.08690643310547,119.55334302783012 34.29659652709961,118.34365674853325 34.29659652709961,117.537199229002 35.103023529052734,117.537199229002 35.103023529052734,116.32751294970512 36.312740325927734,116.32751294970512 36.312740325927734,115.11785718798637 36.312740325927734,114.31139966845512 36.312740325927734,113.10171338915825 37.522396087646484,113.10171338915825 37.522396087646484,111.8920576274395 37.522396087646484,111.08560010790825 38.328853607177734,111.08560010790825 38.328853607177734,109.87591382861137 38.328853607177734,108.6662275493145 39.538509368896484,108.6662275493145 39.538509368896484,107.85977002978325 39.538509368896484,106.6501142680645 39.538509368896484,105.44042798876762 40.74819564819336,105.44042798876762 40.74819564819336,104.63397046923637 40.74819564819336,103.42431470751762 40.74819564819336,102.21462842822075 41.554683685302734,102.21462842822075 41.554683685302734,101.4081709086895 41.554683685302734,100.19849988818169 41.554683685302734,98.98881360888481 42.76430892944336,98.18237134814262 42.76430892944336,96.97268506884575 42.76430892944336,95.76301404833794 42.76430892944336,94.95655652880669 43.97402572631836,94.95655652880669 43.97402572631836,93.74688550829887 43.97402572631836,92.537199229002 43.97402572631836,91.73075696825981 43.97402572631836,90.52107068896294 44.78048324584961,90.52107068896294 44.78048324584961,89.31139966845512 44.78048324584961,88.50494214892387 45.99013900756836,88.50494214892387 45.99013900756836,87.29527112841606 45.99013900756836,86.08558484911919 47.19979476928711,86.08558484911919 47.19979476928711,85.279142588377 48.00625228881836,85.279142588377 48.00625228881836,84.06945630908012 48.00625228881836,82.85978528857231 49.21596908569336,82.85978528857231 49.21596908569336,82.05332776904106 49.21596908569336,80.84365674853325 50.425655364990234,80.84365674853325 50.425655364990234,79.63398572802544 50.425655364990234,78.82752820849419 51.23208236694336,78.82752820849419 51.23208236694336,77.61785718798637 51.23208236694336,76.4081709086895 52.441768646240234,76.4081709086895 52.441768646240234,75.60172864794731 52.441768646240234,74.39204236865044 53.65145492553711,74.39204236865044 53.65145492553711,73.18237134814262 54.45791244506836,73.18237134814262 54.45791244506836,72.37591382861137 54.45791244506836,71.16624280810356 54.45791244506836,69.95655652880669 55.66756820678711,69.95655652880669 55.66756820678711,69.1501142680645 55.66756820678711,67.94042798876762 56.87722396850586,67.94042798876762 56.87722396850586,66.73075696825981 57.68368148803711,66.73075696825981 58.89339828491211,66.73075696825981 58.89339828491211,65.92429944872856 60.103023529052734,65.92429944872856 60.90951156616211,64.71462079882622 62.11916732788086,64.71462079882622 62.11916732788086,63.50493833422661 63.328853607177734,63.50493833422661 64.1352767944336,63.50493833422661 64.1352767944336,62.69849607348442 65.3449935913086,62.69849607348442 66.5546875,62.69849607348442 66.5546875,61.488809794187546 67.3611068725586,61.488809794187546 68.57079315185547,61.488809794187546 69.78047943115234,61.488809794187546 70.5869369506836,61.488809794187546 " style="color: rgb(0, 0, 0);" class="" fill-opacity="1"/>
        <polyline fill="none" stroke="#222222" stroke-width="4" stroke-linejoin="round" stroke-dashoffset="" fill-rule="nonzero" marker-start="" marker-mid="" marker-end="" id="svg_4" points="92.7643051147461,67.94042798876762 92.7643051147461,66.73075696825981 92.7643051147461,65.92429944872856 92.7643051147461,64.71462079882622 93.97402954101562,64.71462079882622 93.97402954101562,63.50493833422661 93.97402954101562,62.69849607348442 94.78047943115234,62.69849607348442 95.99014282226562,62.69849607348442 95.99014282226562,61.488809794187546 97.19979858398438,61.488809794187546 98.00625610351562,61.488809794187546 98.00625610351562,60.27913877367973 99.2159652709961,60.27913877367973 99.2159652709961,59.47268125414848 99.2159652709961,58.26301023364067 100.42562866210938,58.26301023364067 101.2320785522461,58.26301023364067 102.44176483154297,58.26301023364067 103.65145111083984,58.26301023364067 103.65145111083984,57.053323954343796 104.4579086303711,57.053323954343796 105.66756439208984,57.053323954343796 106.8772201538086,57.053323954343796 107.68368530273438,57.053323954343796 108.89334106445312,57.053323954343796 108.89334106445312,56.24688169360161 110.10301971435547,56.24688169360161 110.90950775146484,56.24688169360161 112.11917114257812,56.24688169360161 113.32884979248047,56.24688169360161 114.1352767944336,56.24688169360161 115.3449935913086,56.24688169360161 116.5546875,56.24688169360161 117.3611068725586,56.24688169360161 117.3611068725586,55.03719541430473 118.57079315185547,55.03719541430473 119.78047943115234,55.03719541430473 120.5869369506836,55.03719541430473 121.79659271240234,55.03719541430473 123.00625610351562,55.03719541430473 123.81270599365234,55.03719541430473 125.02242279052734,55.03719541430473 125.02242279052734,56.24688169360161 126.2320785522461,56.24688169360161 127.03854370117188,57.053323954343796 128.24819946289062,57.053323954343796 129.45782470703125,57.053323954343796 129.45782470703125,58.26301023364067 130.26426696777344,58.26301023364067 131.47398376464844,58.26301023364067 131.47398376464844,59.47268125414848 132.6836395263672,59.47268125414848 132.6836395263672,60.27913877367973 133.49012756347656,60.27913877367973 133.49012756347656,61.488809794187546 134.6997528076172,61.488809794187546 134.6997528076172,62.69849607348442 135.9094696044922,62.69849607348442 135.9094696044922,63.50493833422661 136.7158966064453,63.50493833422661 136.7158966064453,64.71462079882622 137.9255828857422,64.71462079882622 137.9255828857422,65.92429944872856 139.13523864746094,65.92429944872856 139.13523864746094,66.73075696825981 139.9416961669922,67.94042798876762 139.9416961669922,69.1501142680645 139.9416961669922,69.95655652880669 139.9416961669922,71.16624280810356 139.9416961669922,72.37591382861137 139.9416961669922,73.18237134814262 139.9416961669922,74.39204236865044 139.9416961669922,75.60172864794731 139.9416961669922,76.4081709086895 139.9416961669922,77.61785718798637 139.9416961669922,78.82752820849419 139.9416961669922,79.63398572802544 139.9416961669922,80.84365674853325 139.9416961669922,82.05332776904106 139.9416961669922,82.85978528857231 139.9416961669922,84.06945630908012 139.9416961669922,85.279142588377 139.13523864746094,85.279142588377 139.13523864746094,86.08558484911919 137.9255828857422,86.08558484911919 137.9255828857422,87.29527112841606 136.7158966064453,87.29527112841606 135.9094696044922,87.29527112841606 134.6997528076172,87.29527112841606 133.49012756347656,87.29527112841606 132.6836395263672,87.29527112841606 131.47398376464844,87.29527112841606 131.47398376464844,88.50494214892387 130.26426696777344,88.50494214892387 129.45782470703125,88.50494214892387 128.24819946289062,88.50494214892387 127.03854370117188,88.50494214892387 126.2320785522461,88.50494214892387 125.02242279052734,88.50494214892387 123.81270599365234,88.50494214892387 123.00625610351562,88.50494214892387 121.79659271240234,88.50494214892387 120.5869369506836,87.29527112841606 119.78047943115234,87.29527112841606 118.57079315185547,87.29527112841606 117.3611068725586,87.29527112841606 117.3611068725586,86.08558484911919 116.5546875,86.08558484911919 115.3449935913086,86.08558484911919 115.3449935913086,85.279142588377 114.1352767944336,85.279142588377 113.32884979248047,85.279142588377 113.32884979248047,84.06945630908012 112.11917114257812,84.06945630908012 110.90950775146484,82.85978528857231 110.10301971435547,82.85978528857231 110.10301971435547,82.05332776904106 108.89334106445312,82.05332776904106 108.89334106445312,80.84365674853325 107.68368530273438,80.84365674853325 106.8772201538086,80.84365674853325 105.66756439208984,80.84365674853325 105.66756439208984,79.63398572802544 104.4579086303711,79.63398572802544 103.65145111083984,79.63398572802544 102.44176483154297,79.63398572802544 102.44176483154297,78.82752820849419 101.2320785522461,78.82752820849419 100.42562866210938,78.82752820849419 100.42562866210938,77.61785718798637 99.2159652709961,77.61785718798637 98.00625610351562,77.61785718798637 98.00625610351562,76.4081709086895 98.00625610351562,75.60172864794731 97.19979858398438,75.60172864794731 97.19979858398438,74.39204236865044 97.19979858398438,73.18237134814262 97.19979858398438,72.37591382861137 97.19979858398438,71.16624280810356 97.19979858398438,69.95655652880669 95.99014282226562,69.95655652880669 95.99014282226562,69.1501142680645 94.78047943115234,69.1501142680645 93.97402954101562,69.1501142680645 " style="color: rgb(0, 0, 0);" class=""/>
        <polyline fill="none" stroke="#222222" stroke-width="4" stroke-linejoin="round" stroke-dashoffset="" fill-rule="nonzero" marker-start="" marker-mid="" marker-end="" id="svg_5" points="102.44176483154297,79.63398572802544 103.65145111083984,80.84365674853325 104.4579086303711,80.84365674853325 104.4579086303711,82.05332776904106 105.66756439208984,82.85978528857231 105.66756439208984,84.06945630908012 105.66756439208984,85.279142588377 106.8772201538086,85.279142588377 106.8772201538086,86.08558484911919 106.8772201538086,87.29527112841606 107.68368530273438,87.29527112841606 107.68368530273438,88.50494214892387 108.89334106445312,88.50494214892387 108.89334106445312,89.31139966845512 110.10301971435547,89.31139966845512 110.10301971435547,90.52107068896294 110.90950775146484,90.52107068896294 112.11917114257812,90.52107068896294 112.11917114257812,91.73075696825981 113.32884979248047,91.73075696825981 114.1352767944336,91.73075696825981 114.1352767944336,92.537199229002 115.3449935913086,92.537199229002 116.5546875,92.537199229002 117.3611068725586,92.537199229002 118.57079315185547,92.537199229002 119.78047943115234,92.537199229002 119.78047943115234,91.73075696825981 120.5869369506836,91.73075696825981 121.79659271240234,91.73075696825981 123.00625610351562,91.73075696825981 123.81270599365234,91.73075696825981 125.02242279052734,91.73075696825981 126.2320785522461,91.73075696825981 126.2320785522461,90.52107068896294 126.2320785522461,89.31139966845512 127.03854370117188,89.31139966845512 127.03854370117188,88.50494214892387 128.24819946289062,88.50494214892387 129.45782470703125,88.50494214892387 " style="color: rgb(0, 0, 0);" class=""/>
        <polyline fill="none" stroke="#222222" stroke-width="4" stroke-linejoin="round" stroke-dashoffset="" fill-rule="nonzero" marker-start="" marker-mid="" marker-end="" points="102.44176483154297,79.63398572802544 103.65145111083984,80.84365674853325 104.4579086303711,80.84365674853325 104.4579086303711,82.05332776904106 105.66756439208984,82.85978528857231 105.66756439208984,84.06945630908012 105.66756439208984,85.279142588377 106.8772201538086,85.279142588377 106.8772201538086,86.08558484911919 106.8772201538086,87.29527112841606 107.68368530273438,87.29527112841606 107.68368530273438,88.50494214892387 108.89334106445312,88.50494214892387 108.89334106445312,89.31139966845512 110.10301971435547,89.31139966845512 110.10301971435547,90.52107068896294 110.90950775146484,90.52107068896294 112.11917114257812,90.52107068896294 112.11917114257812,91.73075696825981 113.32884979248047,91.73075696825981 114.1352767944336,91.73075696825981 114.1352767944336,92.537199229002 115.3449935913086,92.537199229002 116.5546875,92.537199229002 117.3611068725586,92.537199229002 118.57079315185547,92.537199229002 119.78047943115234,92.537199229002 119.78047943115234,91.73075696825981 120.5869369506836,91.73075696825981 121.79659271240234,91.73075696825981 123.00625610351562,91.73075696825981 123.81270599365234,91.73075696825981 125.02242279052734,91.73075696825981 126.2320785522461,91.73075696825981 126.2320785522461,90.52107068896294 126.2320785522461,89.31139966845512 127.03854370117188,89.31139966845512 127.03854370117188,88.50494214892387 128.24819946289062,88.50494214892387 129.45782470703125,88.50494214892387 " style="color: rgb(0, 0, 0);" class="" id="svg_10"/>
        <polyline fill="#ffae00" stroke="#222222" stroke-width="4" stroke-linejoin="round" stroke-dashoffset="" fill-rule="nonzero" marker-start="" marker-mid="" marker-end="" points="102.44176483154297,79.63398572802544 103.65145111083984,80.84365674853325 104.4579086303711,80.84365674853325 104.4579086303711,82.05332776904106 105.66756439208984,82.85978528857231 105.66756439208984,84.06945630908012 105.66756439208984,85.279142588377 106.8772201538086,85.279142588377 106.8772201538086,86.08558484911919 106.8772201538086,87.29527112841606 107.68368530273438,87.29527112841606 107.68368530273438,88.50494214892387 108.89334106445312,88.50494214892387 108.89334106445312,89.31139966845512 110.10301971435547,89.31139966845512 110.10301971435547,90.52107068896294 110.90950775146484,90.52107068896294 112.11917114257812,90.52107068896294 112.11917114257812,91.73075696825981 113.32884979248047,91.73075696825981 114.1352767944336,91.73075696825981 114.1352767944336,92.537199229002 115.3449935913086,92.537199229002 116.5546875,92.537199229002 117.3611068725586,92.537199229002 118.57079315185547,92.537199229002 119.78047943115234,92.537199229002 119.78047943115234,91.73075696825981 120.5869369506836,91.73075696825981 121.79659271240234,91.73075696825981 123.00625610351562,91.73075696825981 123.81270599365234,91.73075696825981 125.02242279052734,91.73075696825981 126.2320785522461,91.73075696825981 126.2320785522461,90.52107068896294 126.2320785522461,89.31139966845512 127.03854370117188,89.31139966845512 127.03854370117188,88.50494214892387 128.24819946289062,88.50494214892387 129.45782470703125,88.50494214892387 " style="color: rgb(0, 0, 0);" class="" id="svg_11" fill-opacity="1"/>
        <polyline fill="#ffffff" stroke="#222222" stroke-width="4" stroke-linejoin="round" stroke-dashoffset="" fill-rule="nonzero" marker-start="" marker-mid="" marker-end="" id="svg_6" points="97.19979858398438,59.47268125414848 97.19979858398438,58.26301023364067 95.99014282226562,57.053323954343796 95.99014282226562,56.24688169360161 95.99014282226562,55.03719541430473 95.99014282226562,53.82752439379692 95.99014282226562,53.02106687426567 95.99014282226562,51.81139585375786 94.78047943115234,51.81139585375786 94.78047943115234,50.601724833250046 94.78047943115234,49.795267313718796 94.78047943115234,48.58559629321098 94.78047943115234,47.37591001391411 94.78047943115234,46.56946775317192 94.78047943115234,45.359781473875046 94.78047943115234,44.15011045336723 95.99014282226562,44.15011045336723 95.99014282226562,43.34365293383598 95.99014282226562,42.13398191332817 97.19979858398438,42.13398191332817 97.19979858398438,40.924295634031296 97.19979858398438,40.11785337328911 97.19979858398438,38.90816709399223 98.00625610351562,38.90816709399223 98.00625610351562,37.69849607348442 98.00625610351562,36.89203855395317 98.00625610351562,35.68236753344536 99.2159652709961,35.68236753344536 99.2159652709961,34.47268125414848 100.42562866210938,34.47268125414848 100.42562866210938,33.666238993406296 101.2320785522461,33.666238993406296 101.2320785522461,32.456548899412155 102.44176483154297,32.456548899412155 103.65145111083984,32.456548899412155 103.65145111083984,31.246877878904343 104.4579086303711,31.246877878904343 104.4579086303711,30.440420359373093 105.66756439208984,30.440420359373093 106.8772201538086,30.440420359373093 106.8772201538086,29.23074933886528 107.68368530273438,29.23074933886528 108.89334106445312,29.23074933886528 110.10301971435547,29.23074933886528 110.90950775146484,29.23074933886528 112.11917114257812,29.23074933886528 113.32884979248047,29.23074933886528 114.1352767944336,29.23074933886528 115.3449935913086,29.23074933886528 116.5546875,29.23074933886528 117.3611068725586,29.23074933886528 118.57079315185547,29.23074933886528 119.78047943115234,29.23074933886528 119.78047943115234,30.440420359373093 120.5869369506836,30.440420359373093 120.5869369506836,31.246877878904343 120.5869369506836,32.456548899412155 120.5869369506836,33.666238993406296 121.79659271240234,33.666238993406296 121.79659271240234,34.47268125414848 123.00625610351562,34.47268125414848 123.81270599365234,34.47268125414848 125.02242279052734,34.47268125414848 126.2320785522461,34.47268125414848 127.03854370117188,34.47268125414848 128.24819946289062,34.47268125414848 129.45782470703125,34.47268125414848 130.26426696777344,34.47268125414848 131.47398376464844,34.47268125414848 132.6836395263672,34.47268125414848 133.49012756347656,34.47268125414848 134.6997528076172,34.47268125414848 135.9094696044922,34.47268125414848 136.7158966064453,34.47268125414848 137.9255828857422,34.47268125414848 137.9255828857422,35.68236753344536 139.13523864746094,35.68236753344536 139.9416961669922,35.68236753344536 139.9416961669922,36.89203855395317 141.15138244628906,36.89203855395317 142.36106872558594,36.89203855395317 143.16749572753906,36.89203855395317 144.37718200683594,36.89203855395317 145.58689880371094,36.89203855395317 145.58689880371094,37.69849607348442 146.39329528808594,37.69849607348442 146.39329528808594,38.90816709399223 146.39329528808594,40.11785337328911 146.39329528808594,40.924295634031296 146.39329528808594,42.13398191332817 147.60301208496094,42.13398191332817 147.60301208496094,43.34365293383598 147.60301208496094,44.15011045336723 147.60301208496094,45.359781473875046 147.60301208496094,46.56946775317192 146.39329528808594,46.56946775317192 146.39329528808594,47.37591001391411 146.39329528808594,48.58559629321098 146.39329528808594,49.795267313718796 146.39329528808594,50.601724833250046 146.39329528808594,51.81139585375786 145.58689880371094,51.81139585375786 145.58689880371094,53.02106687426567 144.37718200683594,53.02106687426567 144.37718200683594,53.82752439379692 143.16749572753906,53.82752439379692 143.16749572753906,55.03719541430473 143.16749572753906,56.24688169360161 143.16749572753906,57.053323954343796 143.16749572753906,58.26301023364067 142.36106872558594,58.26301023364067 142.36106872558594,59.47268125414848 142.36106872558594,60.27913877367973 141.15138244628906,60.27913877367973 141.15138244628906,61.488809794187546 141.15138244628906,62.69849607348442 139.9416961669922,62.69849607348442 139.13523864746094,62.69849607348442 137.9255828857422,62.69849607348442 136.7158966064453,62.69849607348442 135.9094696044922,62.69849607348442 " style="color: rgb(0, 0, 0);" class="" fill-opacity="1"/>
        <polyline fill="#ffae00" stroke="#222222" stroke-width="4" stroke-linejoin="round" stroke-dashoffset="" fill-rule="nonzero" marker-start="" marker-mid="" marker-end="" points="93.57079315185547,67.94042798876762 93.57079315185547,66.73075696825981 93.57079315185547,65.92429944872856 93.57079315185547,64.71462079882622 94.78047943115234,64.71462079882622 94.78047943115234,63.50493833422661 94.78047943115234,62.69849607348442 95.5869369506836,62.69849607348442 96.79659271240234,62.69849607348442 96.79659271240234,61.488809794187546 98.00625610351562,61.488809794187546 98.81270599365234,61.488809794187546 98.81270599365234,60.27913877367973 100.02242279052734,60.27913877367973 100.02242279052734,59.47268125414848 100.02242279052734,58.26301023364067 101.2320785522461,58.26301023364067 102.03854370117188,58.26301023364067 103.24819946289062,58.26301023364067 104.4579086303711,58.26301023364067 104.4579086303711,57.053323954343796 105.26436614990234,57.053323954343796 106.4740219116211,57.053323954343796 107.68368530273438,57.053323954343796 108.49016571044922,57.053323954343796 109.69979095458984,57.053323954343796 109.69979095458984,56.24688169360161 110.90950775146484,56.24688169360161 111.71593475341797,56.24688169360161 112.92562103271484,56.24688169360161 114.1352767944336,56.24688169360161 114.94173431396484,56.24688169360161 116.15142059326172,56.24688169360161 117.3611068725586,56.24688169360161 118.16753387451172,56.24688169360161 118.16753387451172,55.03719541430473 119.3772201538086,55.03719541430473 120.5869369506836,55.03719541430473 121.39340209960938,55.03719541430473 122.6030502319336,55.03719541430473 123.81270599365234,55.03719541430473 124.61919403076172,55.03719541430473 125.8288803100586,55.03719541430473 125.8288803100586,56.24688169360161 127.03854370117188,56.24688169360161 127.8449935913086,57.053323954343796 129.05467224121094,57.053323954343796 130.26426696777344,57.053323954343796 130.26426696777344,58.26301023364067 131.0707550048828,58.26301023364067 132.2804412841797,58.26301023364067 132.2804412841797,59.47268125414848 133.49012756347656,59.47268125414848 133.49012756347656,60.27913877367973 134.2965545654297,60.27913877367973 134.2965545654297,61.488809794187546 135.50621032714844,61.488809794187546 135.50621032714844,62.69849607348442 136.7158966064453,62.69849607348442 136.7158966064453,63.50493833422661 137.5223846435547,63.50493833422661 137.5223846435547,64.71462079882622 138.73204040527344,64.71462079882622 138.73204040527344,65.92429944872856 139.9416961669922,65.92429944872856 139.9416961669922,66.73075696825981 140.74815368652344,67.94042798876762 140.74815368652344,69.1501142680645 140.74815368652344,69.95655652880669 140.74815368652344,71.16624280810356 140.74815368652344,72.37591382861137 140.74815368652344,73.18237134814262 140.74815368652344,74.39204236865044 140.74815368652344,75.60172864794731 140.74815368652344,76.4081709086895 140.74815368652344,77.61785718798637 140.74815368652344,78.82752820849419 140.74815368652344,79.63398572802544 140.74815368652344,80.84365674853325 140.74815368652344,82.05332776904106 140.74815368652344,82.85978528857231 140.74815368652344,84.06945630908012 140.74815368652344,85.279142588377 139.9416961669922,85.279142588377 139.9416961669922,86.08558484911919 138.73204040527344,86.08558484911919 138.73204040527344,87.29527112841606 137.5223846435547,87.29527112841606 136.7158966064453,87.29527112841606 135.50621032714844,87.29527112841606 134.2965545654297,87.29527112841606 133.49012756347656,87.29527112841606 132.2804412841797,87.29527112841606 132.2804412841797,88.50494214892387 131.0707550048828,88.50494214892387 130.26426696777344,88.50494214892387 129.05467224121094,88.50494214892387 127.8449935913086,88.50494214892387 127.03854370117188,88.50494214892387 125.8288803100586,88.50494214892387 124.61919403076172,88.50494214892387 123.81270599365234,88.50494214892387 122.6030502319336,88.50494214892387 121.39340209960938,87.29527112841606 120.5869369506836,87.29527112841606 119.3772201538086,87.29527112841606 118.16753387451172,87.29527112841606 118.16753387451172,86.08558484911919 117.3611068725586,86.08558484911919 116.15142059326172,86.08558484911919 116.15142059326172,85.279142588377 114.94173431396484,85.279142588377 114.1352767944336,85.279142588377 114.1352767944336,84.06945630908012 112.92562103271484,84.06945630908012 111.71593475341797,82.85978528857231 110.90950775146484,82.85978528857231 110.90950775146484,82.05332776904106 109.69979095458984,82.05332776904106 109.69979095458984,80.84365674853325 108.49016571044922,80.84365674853325 107.68368530273438,80.84365674853325 106.4740219116211,80.84365674853325 106.4740219116211,79.63398572802544 105.26436614990234,79.63398572802544 104.4579086303711,79.63398572802544 103.24819946289062,79.63398572802544 103.24819946289062,78.82752820849419 102.03854370117188,78.82752820849419 101.2320785522461,78.82752820849419 101.2320785522461,77.61785718798637 100.02242279052734,77.61785718798637 98.81270599365234,77.61785718798637 98.81270599365234,76.4081709086895 98.81270599365234,75.60172864794731 98.00625610351562,75.60172864794731 98.00625610351562,74.39204236865044 98.00625610351562,73.18237134814262 98.00625610351562,72.37591382861137 98.00625610351562,71.16624280810356 98.00625610351562,69.95655652880669 96.79659271240234,69.95655652880669 96.79659271240234,69.1501142680645 95.5869369506836,69.1501142680645 94.78047943115234,69.1501142680645 " style="color: rgb(0, 0, 0);" class="" id="svg_9" fill-opacity="1"/>
        <polyline fill="none" stroke="#222222" stroke-width="4" stroke-linejoin="round" stroke-dashoffset="" fill-rule="nonzero" marker-start="" marker-mid="" marker-end="" id="svg_7" points="104.0546875,38.90816709399223 104.0546875,40.11785337328911 104.0546875,40.924295634031296 105.26431274414062,40.924295634031296 105.26431274414062,42.13398191332817 105.26431274414062,43.34365293383598 105.26431274414062,44.15011045336723 105.26431274414062,45.359781473875046 106.07080078125,45.359781473875046 106.07080078125,46.56946775317192 106.07080078125,47.37591001391411 106.07080078125,48.58559629321098 " style="color: rgb(0, 0, 0);" class=""/>
        <polyline fill="none" stroke="#222222" stroke-width="4" stroke-linejoin="round" stroke-dashoffset="" fill-rule="nonzero" marker-start="" marker-mid="" marker-end="" id="svg_8" points="134.2965545654297,50.601724833250046 134.2965545654297,49.795267313718796 134.2965545654297,48.58559629321098 134.2965545654297,47.37591001391411 134.2965545654297,46.56946775317192 134.2965545654297,45.359781473875046 135.1029815673828,45.359781473875046 135.1029815673828,44.15011045336723 136.3126983642578,44.15011045336723 136.3126983642578,43.34365293383598 136.3126983642578,42.13398191332817 137.5223846435547,42.13398191332817 137.5223846435547,40.924295634031296 138.3288116455078,40.924295634031296 " style="color: rgb(0, 0, 0);" class=""/>
    
    </g>

</svg>