<?xml version="1.0" encoding="UTF-8" standalone="no"?>
<!-- Created with Inkscape (http://www.inkscape.org/) -->

<svg
   xmlns:dc="http://purl.org/dc/elements/1.1/"
   xmlns:cc="http://creativecommons.org/ns#"
   xmlns:rdf="http://www.w3.org/1999/02/22-rdf-syntax-ns#"
   xmlns:svg="http://www.w3.org/2000/svg"
   xmlns="http://www.w3.org/2000/svg"
   xmlns:sodipodi="http://sodipodi.sourceforge.net/DTD/sodipodi-0.dtd"
   xmlns:inkscape="http://www.inkscape.org/namespaces/inkscape"
   width="600mm"
   height="600mm"
   viewBox="0 0 600 600"
   version="1.1"
   id="svg8"
   inkscape:version="0.92.1 r15371"
   sodipodi:docname="portal.svg">
  <defs
     id="defs2" />
  <sodipodi:namedview
     id="base"
     pagecolor="#ffffff"
     bordercolor="#666666"
     borderopacity="1.0"
     inkscape:pageopacity="0.0"
     inkscape:pageshadow="2"
     inkscape:zoom="0.35"
     inkscape:cx="924.28571"
     inkscape:cy="1160"
     inkscape:document-units="mm"
     inkscape:current-layer="layer1"
     showgrid="false"
     inkscape:measure-start="1094.29,1211.43"
     inkscape:measure-end="0,0"
     inkscape:window-width="1920"
     inkscape:window-height="1017"
     inkscape:window-x="-8"
     inkscape:window-y="-8"
     inkscape:window-maximized="1" />
  <metadata
     id="metadata5">
    <rdf:RDF>
      <cc:Work
         rdf:about="">
        <dc:format>image/svg+xml</dc:format>
        <dc:type
           rdf:resource="http://purl.org/dc/dcmitype/StillImage" />
        <dc:title></dc:title>
      </cc:Work>
    </rdf:RDF>
  </metadata>
  <g
     inkscape:label="Layer 1"
     inkscape:groupmode="layer"
     id="layer1"
     transform="translate(0,303)">
    <path
       style="fill:#00ff00;stroke:#157115;stroke-width:4;stroke-linecap:butt;stroke-linejoin:miter;stroke-opacity:1"
       d="m 165.55356,149.58926 c 0,-7.55951 0,-15.11903 0,-22.67855 0,-1.5119 0,-3.02381 0,-4.53572 0,-0.50398 0.22538,-1.06114 0,-1.51191 -0.31874,-0.63746 -1.24721,-0.85016 -1.51191,-1.51191 -0.28075,-0.70188 0,-1.51191 0,-2.26785 0,-1.51191 0,-3.02381 0,-4.53572 0,-0.50395 0,-1.00793 0,-1.51188 0,-0.50398 0.15937,-1.03381 0,-1.51191 -1.15209,-3.45628 -0.60019,3.20238 -1.5119,-2.26788 -0.19653,-1.17914 0,-4.53638 0,-6.0476 0,-4.535722 0,-9.071422 0,-13.607142 0,-4.03175 0,-8.0635 0,-12.09525 0,-0.64153 -0.13891,-4.11895 0,-4.5357 0.11269,-0.33808 0.64326,-0.41788 0.75595,-0.75596 0.15937,-0.47811 0,-1.00793 0,-1.51189 0,-0.50397 0,-1.00795 0,-1.5119 0,-2.01589 0,-4.03175 0,-6.04764 0,-0.50395 0,-1.00793 0,-1.51191 0,-0.50395 -0.22538,-1.06113 0,-1.51188 0.31874,-0.63749 1.19317,-0.87445 1.51191,-1.51191 0.22538,-0.45077 0,-1.00795 0,-1.51191 0,-0.50397 0,-1.00793 0,-1.5119 0,-3.02382 0,-6.04761 0,-9.071429 0,-0.503978 0,-1.00793 0,-1.511909 0,-0.503978 -0.22538,-1.061138 0,-1.511908 0.31873,-0.637461 1.28652,-0.835766 1.5119,-1.511909 0.31874,-0.956204 0,-2.01586 0,-3.02379 0,-2.519865 0,-5.039704 0,-7.559543 0,-3.527769 0,-7.055538 0,-10.583333 0,-0.483129 -0.10903,-4.317655 0,-4.535698 0.31874,-0.637487 1.37213,-0.813038 1.51191,-1.511909 0.39534,-1.976728 0,-4.0317474 0,-6.0476344 0,-1.5118821 0,-3.0237901 0,-4.535699 0,-0.503978 0,-1.00793 0,-1.51190797 0,-0.5039783 -0.22538,-1.0611383 0,-1.5119093 0.31873,-0.63746003 1.19316,-0.87442103 1.5119,-1.51190803 0.22538,-0.450744 0,-1.00793 0,-1.511909 0,-1.511882 0,-3.02379 0,-4.535699 0,-0.503978 -0.22538,-1.061138 0,-1.511908 0.31874,-0.6374873 1.19317,-0.8744223 1.51191,-1.5119093 0.10903,-0.218069 0,-4.05257 0,-4.535699 0,-4.031748 0,-8.063495 0,-12.095242 0,-3.545681 -0.35636,0.712708 1.5119,-3.023817 0.22538,-0.450771 0,-1.00793 0,-1.511909 0,-0.503978 0,-1.00793 0,-1.511908 0,-2.519839 0,-5.039678 0,-7.559516 0,-0.503979 0,-1.00793 0,-1.511909 0,-0.503978 -0.22538,-1.061138 0,-1.511902 0.31874,-0.637474 1.19317,-0.874429 1.51191,-1.511903 0.22538,-0.450763 0,-1.007938 0,-1.511906 0,-0.503968 0,-1.007936 0,-1.511903 0,-3.023809 0,-6.047621 0,-9.07143 0,-0.503968 0,-1.007936 0,-1.511904 0,-0.503967 -0.22539,-1.061143 0,-1.511905 0.31873,-0.637474 1.19316,-0.87443 1.5119,-1.511904 0.22538,-0.450765 0,-1.007938 0,-1.511906 0,-2.519842 0,-5.039683 0,-7.559525 0,-0.503967 0,-1.007935 0,-1.511903 0,-0.50397 -0.22538,-1.061143 0,-1.511906 0.31874,-0.637474 1.19317,-0.874429 1.51191,-1.511906 0.10903,-0.218061 0,-4.052567 0,-4.535712 0,-0.503968 -0.35636,-1.155546 0,-1.511906 0.35635,-0.356359 1.15554,0.35636 1.5119,0 0.0486,-0.04862 0,-4.169037 0,-4.535715 0,-4.031747 -0.50397,0.503971 1.5119,-1.511903 0.30909,-0.309089 -0.29972,-3.936254 0,-4.535714 0.31874,-0.63748 1.19317,-0.87443 1.51191,-1.5119 0.45076,-0.90153 -0.45076,-2.12229 0,-3.02382 0.31874,-0.63747 1.19317,-0.87443 1.5119,-1.5119 0.29973,-0.59946 -0.30909,-4.226633 0,-4.535713 0.35636,-0.35636 1.28653,0.45076 1.51191,0 0.45076,-0.90153 -0.31874,-2.0676 0,-3.02381 0.22538,-0.67615 1.28652,-0.83576 1.5119,-1.51191 0.31874,-0.95621 -0.45076,-2.12228 0,-3.02381 2.4587,-4.91739 0.73805,3.83349 2.26786,-0.75595 0.15937,-0.4781 0,-1.00793 0,-1.5119 0,-0.50397 0,-1.00794 0,-1.51191 0,-1.00793 -0.31874,-2.06759 0,-3.02381 0.22538,-0.67614 1.19317,-0.87442 1.51191,-1.5119 0.22538,-0.45076 -0.15937,-1.0338 0,-1.5119 3.65045,-10.95136 -0.43589,2.38367 3.02381,-4.53572 0.22538,-0.45076 -0.22539,-1.06114 0,-1.51191 5.01435,-5.01435 -0.71272,1.42544 1.5119,-3.0238 0.31874,-0.63748 1.19317,-0.87443 1.5119,-1.51191 0.22539,-0.45076 -0.22538,-1.06114 0,-1.5119 0.31874,-0.63748 1.11656,-0.91889 1.51191,-1.51191 0.62509,-0.93764 0.88681,-2.08616 1.5119,-3.02381 0.39535,-0.59301 1.19317,-0.87443 1.51191,-1.5119 0.31535,-0.6307 -0.35198,-2.67183 0,-3.02381 0.35636,-0.35636 1.15554,0.35636 1.5119,0 0.35636,-0.35636 -0.22538,-1.06114 0,-1.51191 0.31874,-0.63747 1.11656,-0.91888 1.51191,-1.5119 0.62509,-0.93765 0.88681,-2.08617 1.5119,-3.02381 0.39535,-0.59302 1.19317,-0.87443 1.51191,-1.5119 0.22538,-0.45077 -0.15937,-1.0338 0,-1.51191 0.35636,-1.06908 1.15554,-1.95473 1.5119,-3.02381 0.15937,-0.47812 -0.35636,-1.15556 0,-1.51192 0.35636,-0.35635 1.15555,0.35636 1.51191,0 0.35636,-0.35635 -0.22538,-1.06114 0,-1.5119 0.31873,-0.63748 1.19316,-0.87443 1.5119,-1.5119 0.22538,-0.45077 -0.22538,-1.06115 0,-1.51191 0.31874,-0.63747 1.19317,-0.87443 1.51191,-1.5119 0.22538,-0.45077 -0.22538,-1.06114 0,-1.51191 0.31873,-0.63747 1.19316,-0.87443 1.5119,-1.5119 0.22538,-0.45077 -0.35636,-1.15555 0,-1.51191 0.35636,-0.35636 1.15555,0.35636 1.5119,0 0.35636,-0.35636 -0.35635,-1.15554 0,-1.5119 0.35636,-0.35636 1.15555,0.35636 1.51191,0 0.71272,-0.71272 -0.71272,-2.31109 0,-3.02381 0.35636,-0.35636 1.15555,0.35636 1.51191,0 0.35636,-0.35636 -0.35636,-1.15555 0,-1.51191 0.35636,-0.35636 1.15554,0.35636 1.5119,0 0.35198,-0.35198 -0.31535,-2.39311 0,-3.02381 1.04472,-2.08943 1.97909,-0.93437 3.02381,-3.02381 0.22538,-0.45076 -0.35636,-1.15554 0,-1.5119 3.12818,-3.12819 -0.12228,4.78028 3.02381,-1.5119 0.22538,-0.45077 -0.22538,-1.06115 0,-1.51191 0.63747,-1.27495 2.38633,-1.74886 3.02381,-3.02381 0.22538,-0.45076 -0.35636,-1.15555 0,-1.51191 0.35636,-0.35635 1.15554,0.35636 1.5119,0 0.35636,-0.35635 -0.35636,-1.15554 0,-1.5119 0.50437,-0.50436 2.51945,0.50436 3.02381,0 0.50101,-0.50101 -0.501,-2.5228 0,-3.02381 0.35636,-0.35636 1.15555,0.35636 1.51191,0 0,-4.03174 -0.50397,0.50397 1.5119,-1.5119 0.35636,-0.35636 -0.35636,-1.15555 0,-1.51191 0.35636,-0.35636 1.15555,0.35636 1.51191,0 0.35636,-0.35636 -0.35636,-1.15554 0,-1.5119 0.35636,-0.35636 1.15554,0.35636 1.5119,0 0.35636,-0.35636 -0.22538,-1.06114 0,-1.51191 0.31874,-0.63747 1.00794,-1.00793 1.51191,-1.5119 0.50396,-0.50397 0.87443,-1.19317 1.5119,-1.51191 0.45076,-0.22538 1.15555,0.35636 1.51191,0 0.35635,-0.35636 -0.35636,-1.15554 0,-1.5119 0.35635,-0.35636 1.15554,0.35636 1.5119,0 0.35636,-0.35636 -0.22538,-1.06114 0,-1.51191 0.31874,-0.63747 1.00794,-1.00793 1.5119,-1.5119 0.50397,-0.50397 0.87444,-1.19317 1.51191,-1.51191 0.45076,-0.22538 1.06114,0.22539 1.51191,0 0.4854,-0.2427 2.5384,-2.7811 3.02381,-3.0238 0.45076,-0.22539 1.06114,0.22538 1.5119,0 5.01436,-5.01436 -1.42544,0.71271 3.02381,-1.51191 1.27495,-0.63747 1.74886,-2.38633 3.02381,-3.02381 0.45076,-0.22538 1.06114,0.22538 1.5119,0 0.63748,-0.31874 0.87443,-1.19317 1.51191,-1.5119 0.63069,-0.31535 2.67183,0.35198 3.02381,0 0.35636,-0.35636 -0.35636,-1.15555 0,-1.51191 0.49994,-0.49994 2.52386,0.49995 3.02381,0 0.35636,-0.35636 -0.35636,-1.15555 0,-1.5119 0.35636,-0.35636 1.00793,0 1.5119,0 0.50397,0 1.00794,0 1.51191,0 4.03174,0 -0.50397,0.50397 1.5119,-1.51191 0.35636,-0.35636 1.00794,0 1.51191,0 0.50396,0 1.00793,0 1.5119,0 1.5119,0 3.02381,0 4.53572,0 0.50395,0 1.15554,0.35636 1.51191,0 0.35634,-0.35636 -0.35637,-1.15554 0,-1.5119 0.35634,-0.35636 1.00793,0 1.51191,0 4.03174,0 8.06346,0 12.09521,0 0.50398,0 1.00796,0 1.51191,0 0.50398,0 1.15554,0.35636 1.51191,0 0.35637,-0.35636 -0.35637,-1.15555 0,-1.51191 0.35637,-0.35636 1.00793,0 1.51191,0 1.00793,0 2.01586,0 3.02381,0 2.51984,0 5.03968,0 7.55952,0 0.50398,0 1.00793,0 1.51191,0 0.50395,0 1.06114,0.22538 1.51191,0 0.63746,-0.31874 0.87442,-1.19316 1.51191,-1.5119 0.45074,-0.22538 1.00793,0 1.51188,0 1.51191,0 3.02381,0 4.53572,0 4.53573,0 9.07143,0 13.60715,0 16.37895,0 32.75793,0 49.13691,0 4.5357,0 9.07143,0 13.60712,0 1.51191,0 3.02382,0 4.53573,0 0.50395,0 1.03381,-0.15937 1.51191,0 0.33806,0.11269 0.45945,0.55828 0.75594,0.75595 3.02382,2.01587 0.25199,-0.75595 2.26785,2.26786 0.75562,1.1334 2.4194,1.81498 3.02382,3.02381 0.22537,0.45076 -0.35637,1.15554 0,1.5119 4.03174,4.03175 -0.37426,-3.20723 2.26785,0.75595 0.31255,0.46883 0.44341,1.04309 0.75596,1.51191 0.19767,0.29651 0.55827,0.45944 0.75594,0.75595 3.51759,5.27637 -3.35441,-3.71662 2.26788,3.77976 0.47477,0.63306 1.95855,1.64925 2.26785,2.26786 0.35637,0.71272 0.19248,1.7044 0.75594,2.26786 0.56346,0.56345 1.70442,0.1925 2.26788,0.75595 0.35634,0.35636 -0.12224,1.02298 0,1.5119 0.13665,0.54664 0.57777,0.97737 0.75594,1.51191 0.32856,0.98564 0.3701,2.05916 0.75594,3.02381 0.13237,0.33087 0.50398,0.50397 0.75597,0.75595 0.50395,0.50397 0.91887,1.11656 1.51191,1.51191 1.29145,0.86097 2.70883,0.92921 3.77975,2.26785 0.49779,0.62223 0.3996,1.55514 0.75594,2.26786 0.15939,0.31874 0.64329,0.41788 0.75597,0.75595 0.15936,0.47811 -0.15938,1.0338 0,1.51191 0.19119,0.5736 2.67642,2.32904 3.02379,3.0238 0.35637,0.71272 0.3996,1.55514 0.75597,2.26786 0.15936,0.31874 0.55827,0.45945 0.75594,0.75596 0.31255,0.46882 0.50398,1.00793 0.75597,1.5119 0.25199,0.50397 0.54668,0.98875 0.75594,1.51191 0.29594,0.73984 0.3996,1.55513 0.75597,2.26785 0.15936,0.31874 0.55827,0.45944 0.75594,0.75595 0.6251,0.93765 0.8868,2.08617 1.51191,3.02381 0.42476,0.63714 2.86983,2.56192 3.02381,3.02381 0.15936,0.47811 0,1.00794 0,1.51191 0.50396,0.50397 1.19317,0.87443 1.51189,1.5119 0.22539,0.45076 -0.35635,1.15555 0,1.51191 4.03174,0 -0.50396,-0.50397 1.5119,1.5119 0.35637,0.35636 1.15555,-0.35636 1.51191,0 0.28472,0.28471 -0.28469,4.25101 0,4.53572 0.5035,0.5035 2.52032,-0.5035 3.02382,0 0.35637,0.35636 -0.22537,1.06114 0,1.5119 0.31874,0.63748 1.19316,0.87443 1.51191,1.51191 0.29972,0.59945 -0.30909,4.22662 0,4.53572 0.35634,0.35636 1.06114,-0.22539 1.51191,0 3.3429,1.67145 0.46916,0.93835 1.51188,3.02381 0.63749,1.27495 2.38636,1.74886 3.02382,3.02381 0.29972,0.59946 -0.30909,4.22662 0,4.53571 0.71273,0.71272 2.57304,-0.90152 3.02381,0 0.45077,0.90153 -0.45077,2.12229 0,3.02381 0.22538,0.45077 1.15554,-0.35636 1.51191,0 0.71271,0.71272 -0.71273,2.31109 0,3.02381 0.35634,0.35636 1.15554,-0.35636 1.51191,0 0.35634,0.35636 -0.2254,1.06114 0,1.51191 0.31872,0.63747 1.19316,0.87443 1.51188,1.5119 0.2254,0.45077 -0.35634,1.15555 0,1.51191 0.35637,0.35636 1.15557,-0.35636 1.51191,0 0.50686,0.50684 -0.50684,2.51696 0,3.02381 0.35637,0.35636 1.15554,-0.35636 1.51191,0 0.35637,0.35636 -0.22537,1.06114 0,1.5119 0.63749,1.27495 2.38633,1.74886 3.02382,3.02381 0.22537,0.45076 -0.35637,1.15554 0,1.5119 0.35636,0.35636 1.15554,-0.35636 1.5119,0 0.2847,0.28471 -0.28471,4.25101 0,4.53572 0.35635,0.35636 1.15555,-0.35636 1.51191,0 0.35198,0.35198 -0.31535,2.39311 0,3.02381 0.31872,0.63747 1.19317,0.87443 1.51189,1.5119 0.31535,0.6307 -0.35198,2.67183 0,3.02381 0.35636,0.35636 1.28653,-0.45076 1.5119,0 0.45077,0.90153 0,2.01588 0,3.02381 0,0.50397 0,1.00794 0,1.51191 0,0.50397 -0.35634,1.15554 0,1.5119 0.35637,0.35636 1.15554,-0.35636 1.51191,0 0.28472,0.2847 -0.28469,4.25101 0,4.53571 0.35637,0.35636 1.15554,-0.35636 1.51191,0 0.35637,0.35636 0,1.00794 0,1.511913 0,1.07666 -0.15801,5.57358 0,6.04762 0.22537,0.67614 1.28654,0.83576 1.51191,1.5119 0.26702,0.80106 -0.21712,5.830499 0,6.047621 0.35637,0.35636 1.15554,-0.356359 1.51191,0 0.35634,0.35636 0,1.007936 0,1.511904 0,0.503967 0,1.007938 0,1.511906 0,2.015873 0,4.031744 0,6.047618 0,0.503968 0,1.007938 0,1.511906 0,0.503967 -0.2254,1.06114 0,1.511903 0.31871,0.637476 1.19316,0.874429 1.51191,1.511906 0.22537,0.450762 0,1.007935 0,1.511903 0,0.641538 -0.13894,4.118975 0,4.535715 0.35634,1.069078 1.15554,1.954731 1.51188,3.02381 0.31874,0.956212 -0.31872,2.067597 0,3.023809 0.35637,1.069078 1.15557,1.954734 1.51191,3.023812 0.34406,1.032171 -0.34404,3.503541 0,4.535712 0.35636,1.069078 1.15554,1.954731 1.51191,3.023809 0.15938,0.478108 0,1.007939 0,1.511906 0,0.503968 0,1.007936 0,1.511906 0,2.519839 0,5.039677 0,7.559515 0,4.031748 0,8.063495 0,12.095242 0,1.511909 0,3.023817 0,4.535726 0,0.503951 -0.22538,1.061138 0,1.511908 0.31874,0.637461 1.28653,0.835739 1.5119,1.511882 0.31875,0.956231 0,2.015887 0,3.023817 0,0.503979 0,1.007931 0,1.511909 0,4.031747 0,8.0634953 0,12.0952423 0,9.5754023 0,19.1507787 0,28.7261817 0,6.047634 0,12.095242 0,18.142849 0,1.511909 0,3.023817 0,4.535727 0,0.50398 0,1.00793 0,1.51191 0,0.50395 -0.22537,1.06114 0,1.51191 0.31875,0.63746 1.19317,0.87442 1.51191,1.51191 0.10904,0.21804 0,4.05254 0,4.53569 0,4.03175 0,8.0635 0,12.09525 0,12.59919 0,25.19841 0,37.797592 0,20.66272 0,41.3254 0,61.98812 0,4.03172 -0.50398,-0.50398 1.51191,1.51188 0.0486,0.0486 0,4.16904 0,4.53573 0,4.03174 0,8.06349 0,12.09524 0,1.51191 0,3.02381 0,4.5357 0,0.50397 0.22537,1.06116 0,1.5119 -0.31874,0.63749 -1.19316,0.87445 -1.51191,1.51191 -0.22537,0.45077 0,1.00793 0,1.51191 0,0.50398 0,1.00793 0,1.51191 0,2.01586 0,4.03175 0,6.04761 0,3.52779 0,7.05556 0,10.58333 0,0.50398 0.35637,1.15554 0,1.51191 -0.35636,0.35637 -1.15554,-0.35637 -1.51191,0 -0.35636,0.35637 0,1.00793 0,1.51191 0,1.51191 0,3.02382 0,4.53572 0,0.50396 0.22538,1.06114 0,1.51189 -0.31874,0.63748 -1.19316,0.87444 -1.5119,1.5119 -0.31533,0.63072 0.35197,2.67185 0,3.02382 -0.35637,0.35637 -1.15555,-0.35637 -1.51191,0 -0.35634,0.35637 0.2254,1.06114 0,1.51191 -0.31872,0.63746 -1.19317,0.87442 -1.51191,1.51191 -0.22537,0.45074 0.35637,1.15554 0,1.51191 -0.35634,0.35634 -1.15554,-0.35637 -1.51188,0 -0.35637,0.35634 0.35634,1.15554 0,1.51188 -0.35637,0.35637 -1.15557,-0.35634 -1.51191,0 -0.35637,0.35637 0.35634,1.15557 0,1.51191 -0.35637,0.35636 -1.15554,-0.35634 -1.51191,0 -0.35637,0.35636 0.35637,1.15554 0,1.51191 -0.35637,0.35636 -1.15554,-0.35637 -1.51191,0 -3.12819,3.12819 4.78028,-0.12229 -1.51191,3.02381 -0.45077,0.22538 -1.15554,-0.35636 -1.51191,0 -0.35634,0.35637 0.35637,1.15554 0,1.51191 -0.7127,0.71271 -2.31108,-0.71273 -3.02379,0 -0.35636,0.35634 0.35634,1.15554 0,1.51191 -0.71273,0.71271 -2.31111,-0.71273 -3.02381,0 -0.35637,0.35634 0.35636,1.15554 0,1.51188 -0.28472,0.28472 -4.25101,-0.28469 -4.53573,0 -0.35634,0.35637 0.35637,1.15557 0,1.51191 -0.35197,0.35198 -2.3931,-0.31533 -3.02379,0 -0.3823,0.19116 -2.64152,2.83268 -3.02382,3.02382 -0.81576,0.40788 -2.20805,-0.40788 -3.02381,0 -0.63746,0.31874 -0.87443,1.19316 -1.51191,1.51191 -0.59944,0.29972 -4.22662,-0.30909 -4.5357,0 -0.35637,0.35636 0.35634,1.15554 0,1.5119 -0.352,0.35198 -2.39313,-0.31535 -3.02382,0 -0.63749,0.31872 -0.87442,1.19317 -1.51191,1.51191 -0.5742,0.2871 -5.47341,-0.28712 -6.0476,0 -0.63749,0.31872 -0.87445,1.19317 -1.51191,1.51189 -0.45077,0.22539 -1.00793,0 -1.51191,0 -1.51191,0 -3.02382,0 -4.53573,0 -0.50395,0 -1.06114,-0.22538 -1.51188,0 -0.63749,0.31874 -0.83577,1.28653 -1.51191,1.5119 -0.95623,0.31875 -2.01589,0 -3.02382,0 -0.50397,0 -1.00793,0 -1.5119,0 -0.50396,0 -1.06114,-0.22537 -1.51191,0 -0.63746,0.31875 -0.83577,1.28654 -1.51191,1.51191 -0.9562,0.31875 -2.01586,0 -3.02379,0 -0.50398,0 -1.00796,0 -1.51191,0 -3.02382,0 -6.04763,0 -9.07142,0 -0.64154,0 -4.11898,-0.1389 -4.53573,0 -1.06908,0.35637 -1.91878,1.2909 -3.02382,1.51191 -1.48254,0.29652 -3.02379,0 -4.5357,0 -1.5119,0 -3.02381,0 -4.53572,0 -6.55159,0 -13.10317,0 -19.65476,0 -7.05556,0 -14.1111,0 -21.16667,0 -0.50395,0 -1.00793,0 -1.5119,0 -0.50396,0 -1.15555,0.35637 -1.51191,0 -0.35634,-0.35637 0.35636,-1.15554 0,-1.51191 -0.35634,-0.35636 -1.00793,0 -1.51189,0 -2.51986,0 -5.0397,0 -7.55954,0 -0.50395,0 -1.00793,0 -1.51191,0 -0.50395,0 -1.06113,0.22537 -1.51188,0 -0.63749,-0.31874 -0.87445,-1.19316 -1.51191,-1.51191 -0.45077,-0.22537 -1.00795,0 -1.51191,0 -0.99321,0 -5.69208,0.17778 -6.04763,0 -0.45074,-0.22537 0.35637,-1.15554 0,-1.5119 -0.21712,-0.21712 -5.24655,0.26701 -6.04761,0 -0.67614,-0.22538 -0.87442,-1.19317 -1.51191,-1.51189 -0.90151,-0.45077 -2.06758,0.31872 -3.02381,0 -1.06908,-0.35636 -1.95472,-1.15556 -3.02379,-1.51191 -0.47811,-0.15938 -1.03381,0.15936 -1.51191,0 -1.06908,-0.35636 -1.95474,-1.15554 -3.02382,-1.5119 -0.45799,-0.15267 -6.00228,0 -6.04761,0 -0.50397,0 -1.06113,0.22537 -1.51191,0 -0.63748,-0.31875 -0.83576,-1.28654 -1.5119,-1.51191 -0.47406,-0.15801 -4.97097,0 -6.04761,0 -0.50398,0 -1.15557,0.35637 -1.51191,0 -0.35637,-0.35637 0.35634,-1.15554 0,-1.51191 -0.35637,-0.35637 -1.00796,0 -1.51191,0 -2.51984,0 -5.03968,0 -7.55951,0 -1.51191,0 -3.02382,0 -4.53573,0 -0.50397,0 -1.15555,0.35637 -1.51191,0 -0.35636,-0.35637 0.35636,-1.15554 0,-1.51191 -0.24375,-0.24373 -2.39375,0.21003 -3.0238,0 -1.06908,-0.35634 -1.95474,-1.15554 -3.02381,-1.51191 -0.95622,-0.31871 -2.12229,0.45077 -3.02381,0 -0.63748,-0.31871 -0.87443,-1.19316 -1.51191,-1.51188 -0.57421,-0.28713 -5.4734,0.2871 -6.04762,0 -0.63747,-0.31874 -0.82046,-1.33906 -1.5119,-1.51191 -1.46677,-0.36671 -3.02381,0 -4.53572,0 -0.50396,0 -1.06114,0.22537 -1.5119,0 -0.63748,-0.31874 -0.87443,-1.19316 -1.5119,-1.51191 -0.6307,-0.31535 -2.67183,0.35198 -3.02381,0 -0.35636,-0.35636 0.35636,-1.15554 0,-1.51191 -0.35636,-0.35636 -1.00794,0 -1.51191,0 -3.02381,0 -6.04762,0 -9.07143,0 -4.03174,0 0.50397,0.50398 -1.5119,-1.5119 -0.28471,-0.2847 -4.25101,0.28471 -4.53572,0 -2.01587,-2.01586 2.51984,-1.51191 -1.5119,-1.51191 -1.51191,0 -3.02381,0 -4.53572,0 -0.50396,0 -1.15554,0.35636 -1.5119,0 -0.35636,-0.35634 0.35636,-1.15554 0,-1.51191 -0.35636,-0.35634 -1.00794,0 -1.51191,0 -0.36667,0 -4.48709,0.0486 -4.53571,0 -0.35636,-0.35634 0.35636,-1.15554 0,-1.51188 -0.2847,-0.28472 -4.25101,0.28469 -4.53572,0 -0.35635,-0.35637 0.45077,-1.28654 0,-1.51191 -0.90152,-0.45077 -2.01587,0 -3.0238,0 -0.50397,0 -1.15555,0.35634 -1.51191,0 -0.35636,-0.35637 0.35636,-1.15554 0,-1.51191 -0.2847,-0.28472 -4.25101,0.28469 -4.53571,0 -0.35636,-0.35637 0.35636,-1.15554 0,-1.51191 -0.51495,-0.51496 -2.50887,0.51493 -3.02381,0 -0.35636,-0.35637 0.35636,-1.15554 0,-1.51191 -0.35636,-0.35636 -1.00794,0 -1.51191,0 -0.36667,0 -4.48709,0.0486 -4.53571,0 -0.35636,-0.35636 0.35636,-1.15554 0,-1.51191 -0.2847,-0.28469 -4.25101,0.28472 -4.53571,0 -0.35636,-0.35634 0.35635,-1.15554 0,-1.5119 -0.50936,-0.50935 -2.51446,0.50937 -3.02381,0 -0.35636,-0.35635 0.35636,-1.15555 0,-1.51189 -0.28471,-0.28471 -4.25101,0.2847 -4.53572,0 -0.35636,-0.35636 0.35636,-1.15556 0,-1.5119 -0.35636,-0.35637 -1.06114,0.22537 -1.5119,0 -0.63748,-0.31875 -0.87443,-1.19317 -1.51191,-1.51191 -0.63069,-0.31536 -2.67183,0.35197 -3.02381,0 -0.35636,-0.35637 0.35636,-1.15554 0,-1.51191 -0.50984,-0.50985 -2.51396,0.50985 -3.02381,0 -0.35636,-0.35637 0.35636,-1.15554 0,-1.51191 -0.35636,-0.35637 -1.15554,0.35637 -1.5119,0 -0.35636,-0.35637 0.35636,-1.15554 0,-1.51191 -3.12819,-3.12817 0.12228,4.78028 -3.02381,-1.51191 -0.22538,-0.45074 0.35636,-1.15554 0,-1.51188 -0.35636,-0.35637 -1.15555,0.35634 -1.51191,0 -0.71272,-0.71273 0.71272,-2.31111 0,-3.02382 -0.35636,-0.35636 -1.15554,0.35637 -1.5119,0 -0.35636,-0.35636 0.35636,-1.15554 0,-1.51191 -0.35636,-0.35636 -1.15555,0.35637 -1.51191,0 -0.71271,-0.7127 0.71272,-2.31108 0,-3.02381 -0.35636,-0.35634 -1.15554,0.35637 -1.5119,0 -0.2847,-0.28469 0.28471,-4.25101 0,-4.5357 -0.35636,-0.35637 -1.15555,0.35634 -1.51191,0 -0.0486,-0.0486 0,-4.16904 0,-4.53573 0,-9.5754 0,-19.15078 0,-28.72618 0,-4.03175 0.50397,0.50395 -1.5119,-1.51191 -0.35636,-0.35637 0,-1.00793 0,-1.51191 0,-0.50397 0,-1.00793 0,-1.5119 0,-4.03175 0,-8.0635 0,-12.09525 z"
       id="path10"
       inkscape:connector-curvature="0" />
    <path
       sodipodi:type="spiral"
       style="fill:none;fill-rule:evenodd;stroke:#009200;stroke-width:2;stroke-miterlimit:4;stroke-dasharray:none;stroke-opacity:1"
       id="path4487"
       sodipodi:cx="325.81549"
       sodipodi:cy="-5.3809609"
       sodipodi:expansion="1"
       sodipodi:revolution="3.3780797"
       sodipodi:radius="161.31503"
       sodipodi:argument="-19.627491"
       sodipodi:t0="0"
       d="m 325.81549,-5.3809609 c 5.11681,-5.0409951 9.31961,4.41030181 8.37847,8.5044665 -2.55045,11.0949334 -16.7986,12.7752364 -25.3874,8.2524644 -15.36335,-8.090179 -17.01558,-28.813205 -8.12647,-42.27033 13.04514,-19.748873 40.99133,-21.383037 59.15327,-8.000462 24.20701,17.836867 25.80474,53.227549 7.87446,76.036194 -22.56343,28.70235 -65.49149,30.254528 -92.91913,7.748459 -33.21854,-27.257865 -34.72057,-77.771042 -7.62246,-109.802057 31.9342,-37.747444 90.06033,-39.196834 126.68499,-7.496458 42.28462,36.59934 43.67991,102.356112 7.37046,143.567921 -41.2571,46.827473 -114.65646,48.167743 -160.45085,7.244456 -51.37439,-45.909741 -52.65904,-126.960134 -7.11846,-177.333785 50.55868,-55.924298 139.26632,-57.152918 194.21672,-6.992458 60.47649,55.20485 61.64878,151.574432 6.86645,211.09965 -28.98722,31.49686 -70.50739,49.83275 -113.24489,50.69899"
       transform="matrix(1,0,0,1.4091525,0,-0.10601915)" />
    <path
       sodipodi:type="spiral"
       style="fill:none;fill-rule:evenodd;stroke:#b7ffb7;stroke-width:4;stroke-miterlimit:4;stroke-dasharray:none;stroke-opacity:1"
       id="path4513"
       sodipodi:cx="325.81549"
       sodipodi:cy="-7.6886044"
       sodipodi:expansion="1"
       sodipodi:revolution="3.9824569"
       sodipodi:radius="199.3647"
       sodipodi:argument="-20.274418"
       sodipodi:t0="0"
       d="m 325.81549,-7.6886044 c 1.09498,-7.4498566 10.58248,-2.1994929 12.38215,1.8199195 4.877,10.8923591 -5.97976,21.3007409 -16.02199,22.9443839 -17.96319,2.940093 -32.43929,-13.3506022 -33.50661,-30.224062 -1.56634,-24.76248 20.77789,-43.787497 44.42613,-44.068849 31.51938,-0.374998 55.21779,28.219522 54.63108,58.6282049 -0.73832,38.2662241 -35.66659,66.6890891 -72.83028,65.1933141 -45.0102,-1.811584 -78.18385,-43.116436 -75.75554,-87.032347 2.86167,-51.753383 50.56797,-89.69331 101.23442,-86.31778 58.49641,3.89718 101.21256,58.020645 96.88001,115.4364906 C 432.33193,73.930203 371.78074,121.42936 307.6163,116.13291 235.63349,110.1911 183.34648,43.204717 189.61182,-27.707718 c 6.95571,-78.726242 80.38273,-135.804682 158.0427,-128.566712 85.46985,7.96587 147.34245,87.837633 139.12895,172.244778 C 477.81034,108.18393 391.49065,174.85281 300.33662,165.66152 201.37917,155.6834 129.91232,62.913283 140.08321,-34.987396 150.19395,-132.30904 235.83923,-206.51504 332.93289,-206.92622"
       transform="matrix(0.75872927,0,0,0.94901583,95.249022,37.523241)" />
  </g>
</svg>
